<svg id="eeaCT6btBIy1" xmlns="http://www.w3.org/2000/svg" xmlns:xlink="http://www.w3.org/1999/xlink" viewBox="0 0 500 500" shape-rendering="geometricPrecision" text-rendering="geometricPrecision"><defs><linearGradient id="eeaCT6btBIy38-fill" x1="66.9254" y1="399.6879" x2="67.1807" y2="433.6454" spreadMethod="pad" gradientUnits="userSpaceOnUse" gradientTransform="translate(0 0)"><stop id="eeaCT6btBIy38-fill-0" offset="23.52%" stop-color="#9c9c9c"/><stop id="eeaCT6btBIy38-fill-1" offset="100%" stop-color="rgba(255,255,255,0)"/></linearGradient><radialGradient id="eeaCT6btBIy145-fill" cx="0" cy="0" r="54.0295" spreadMethod="pad" gradientUnits="userSpaceOnUse" gradientTransform="matrix(1 0 0 0.0877 -0.0003 0.020474)"><stop id="eeaCT6btBIy145-fill-0" offset="40.81%" stop-color="#9c9c9c"/><stop id="eeaCT6btBIy145-fill-1" offset="100%" stop-color="rgba(255,255,255,0)"/></radialGradient><radialGradient id="eeaCT6btBIy252-fill" cx="0" cy="0" r="51.9967" spreadMethod="pad" gradientUnits="userSpaceOnUse" gradientTransform="matrix(1 0 0 0.0713 169.632 406.181982)"><stop id="eeaCT6btBIy252-fill-0" offset="40.81%" stop-color="#9c9c9c"/><stop id="eeaCT6btBIy252-fill-1" offset="100%" stop-color="rgba(255,255,255,0)"/></radialGradient></defs><g transform="translate(-1.30713-.686806)"><rect width="500" height="500" rx="0" ry="0" fill="#fff"/><g><g><path d="M150.764,400.894h294.042c27.083-46.585,38.47-102.131,31.825-155.61-2.229-17.942-6.571-35.997-16.18-51.311-9.609-15.315-25.126-27.645-43.037-30.108-23.03-3.168-44.749,9.762-66.784,17.17-32.923,11.068-69.237,9.868-102.618.271-36.502-10.495-71.348-30.893-109.308-29.631-34.532,1.148-66.924,21.121-87.34,48.995s-29.654,62.848-30.554,97.388s6.094,68.848,15.668,102.046l114.286.79Z" transform="translate(0-.941574)" fill="#d6edf1"/><path d="M84.911,160.495c10.637-6.861,22.593-11.975,35.17-13.399c4.203-.476,9.141-.934,11.33-4.553c1.822-3.013.726-7.133-1.718-9.668s-5.92-3.783-9.339-4.623c-17.345-4.264-36.104.124-51.326,9.469-5.651,3.469-10.949,7.654-14.981,12.919s-6.742,11.685-6.87,18.315c-.067,3.452.588,6.977,2.324,9.962c1.459,2.509,4.169,5.81,7.333,4.586c3.128-1.21,6.246-5.649,8.722-7.889c6.075-5.497,12.463-10.675,19.355-15.119Z" fill="#d6edf1"/></g><g><g><g><g><polygon points="379.033,426.395 377.264,426.395 405.302,400.843 407.07,400.843" fill="#f58249"/><polygon points="289.943,427.838 291.527,426.395 379.033,426.395 377.449,427.838" fill="#f58249"/><g><polygon points="405.303,400.842 382.955,421.21 377.265,426.392 291.529,426.392 304.536,414.541 319.561,400.842" fill="#f5ad49"/><path d="M382.955,421.21l-5.69,5.182h-85.735l13.007-11.852c7.192-1.561,14.87-1.583,22.29-1.465c13.5.221,27.074.67,40.339,3.18c5.38,1.017,10.894,2.526,15.789,4.955Z" opacity="0.5" fill="#f5ad49"/></g></g></g><g><rect width="156.246" height="300.378" rx="0" ry="0" transform="translate(286.319 92.183)" fill="#a4d7e0"/><g><rect width="139.021" height="288.538" rx="0" ry="0" transform="translate(294.932 104.024)" fill="#1c484f"/><rect width="139.021" height="39.718" rx="0" ry="0" transform="translate(294.932 352.844)" opacity="0.5" fill="#1f4f57"/></g><g><polygon points="348.507,362.871 433.988,392.562 433.988,104.024 348.507,113.28" fill="#e6e6e6"/><g><g><path d="M353.658,148.713v-23.808l73.471-6.284v26.865l-.382.017-73.089,3.21Zm.799-23.074v22.24l71.872-3.156v-25.23l-71.872,6.146Z" fill="#80c8d4"/></g><g><path d="M427.128,379.402l-.525-.172-72.946-24.032v-64.454l73.471,15.752v72.906ZM354.457,354.62l71.872,23.679v-71.157l-71.872-15.41v62.888Z" fill="#80c8d4"/></g><g><path d="M427.128,280.608l-36.781-6.318v-115.427l36.781-.832v122.577Zm-35.981-6.991l35.182,6.044v-120.812l-35.182.796v113.972Z" fill="#80c8d4"/></g><g><path d="M385.983,273.54l-32.326-5.552v-108.295l32.326-.731v114.578Zm-31.526-6.225l30.727,5.278v-112.813l-30.727.695v106.84Z" fill="#80c8d4"/></g><g><path d="M400.892,292.491l-24.878-4.952v-9.465l24.878,4.578v9.839Zm-24.079-5.608l23.28,4.635v-8.199l-23.28-4.285v7.849Z" fill="#80c8d4"/></g></g></g></g></g></g><line x1="16.946" y1="400.632" x2="473.967" y2="400.632" fill="none" stroke="#1c484f" stroke-miterlimit="10"/></g></g><g><g><polygon points="121.21,399.561 78.236,425.221 12.831,425.221 61.885,397.425" opacity="0.5" fill="url(#eeaCT6btBIy38-fill)"/><g><g><polygon points="121.21,339.067 121.21,344.014 47.326,344.014 59.31,339.973 61.99,339.067" fill="#c7762f"/><g><rect width="64.159" height="61.176" rx="0" ry="0" transform="translate(47.327 344.013)" fill="#f5ad49"/><g><g><rect width="26.962" height="3.754" rx="0" ry="0" transform="translate(50.224 395.548)" fill="#c7762f"/><rect width="18.088" height="2.73" rx="0" ry="0" transform="translate(50.224 391.197)" fill="#c7762f"/></g></g><path d="M106.537,352.844c0,2.71-2.196,4.906-4.906,4.906s-4.906-2.197-4.906-4.906s2.196-4.906,4.906-4.906s4.906,2.197,4.906,4.906Z" fill="#c7762f"/><rect width="2.898" height="61.176" rx="0" ry="0" transform="matrix(-1 0 0-1 50.2239 405.19)" opacity="0.5" fill="#f5ad49"/></g><g><polygon points="121.21,339.067 121.21,399.561 111.486,405.193 111.486,344.014 114.085,342.697" fill="#e38c3b"/><path d="M121.21,388.218v11.344l-9.724,5.631v-61.179l2.599-1.318c-.25,9.305.155,18.616,1.215,27.862.501,4.358,1.17,8.767,2.937,12.779.765,1.745,1.759,3.409,2.973,4.881Z" opacity="0.5" fill="#e38c3b"/></g><path d="M121.21,339.067v.685c-27.781,3.57-51.248,1.568-61.9.221l2.68-.905h59.22Z" opacity="0.5" fill="#c7762f"/></g><g><polygon points="111.486,295.377 111.486,299.022 57.05,299.022 65.88,296.044 67.854,295.377" fill="#c7762f"/><g><rect width="47.271" height="45.073" rx="0" ry="0" transform="translate(57.051 299.021)" fill="#f5ad49"/><g><g><rect width="19.865" height="2.766" rx="0" ry="0" transform="translate(59.185 336.991)" fill="#c7762f"/><rect width="13.327" height="2.012" rx="0" ry="0" transform="translate(59.185 333.785)" fill="#c7762f"/></g></g><path d="M100.676,305.528c0,1.996-1.618,3.615-3.615,3.615s-3.615-1.618-3.615-3.615c0-1.996,1.618-3.615,3.615-3.615s3.615,1.618,3.615,3.615Z" fill="#c7762f"/><rect width="2.135" height="45.073" rx="0" ry="0" transform="matrix(-1 0 0-1 59.185 344.095)" opacity="0.5" fill="#f5ad49"/></g><g><polygon points="111.486,295.377 111.486,339.948 104.322,344.097 104.322,299.022 106.236,298.051" fill="#e38c3b"/><path d="M111.486,331.59v8.358l-7.164,4.149v-45.075l1.915-.971c-.184,6.855.114,13.716.895,20.528.369,3.211.862,6.459,2.164,9.415.563,1.286,1.295,2.511,2.19,3.596Z" opacity="0.5" fill="#e38c3b"/></g><path d="M111.486,295.377v.504c-20.468,2.63-37.758,1.155-45.606.163l1.974-.667h43.632Z" opacity="0.5" fill="#c7762f"/></g></g></g><g><g><g><path d="M391.845,257.688c3.621,3.819,6.997,7.877,10.13,12.117c3.116,4.254,5.983,8.691,8.625,13.26c5.277,9.146,9.581,18.835,13.171,28.762c3.533,9.951,6.367,20.14,8.669,30.433c1.146,5.148,2.18,10.319,3.125,15.504.923,5.189,1.765,10.389,2.56,15.595l-1.454.23c-.851-5.188-1.748-10.366-2.726-15.528-.956-5.165-1.985-10.315-3.134-15.437-2.287-10.243-4.977-20.402-8.429-30.309-3.394-9.922-7.562-19.586-12.595-28.794-2.513-4.605-5.261-9.086-8.254-13.402-2.974-4.327-6.201-8.489-9.688-12.431Z" fill="#1c2540"/></g></g><g><g><path d="M421.056,221.217c4.866,11.747,9.738,23.525,13.388,35.732.918,3.048,1.752,6.123,2.48,9.224.38,1.547.702,3.107,1.031,4.666.301,1.564.56,3.136.842,4.704c1.02,6.288,1.74,12.63,2.074,18.992.753,12.724.491,25.468.436,38.18-.019,6.357.011,12.711.234,19.054.253,6.341.712,12.668,1.48,18.955l-1.461.18c-.713-6.35-1.114-12.722-1.306-19.094-.163-6.373-.131-12.742-.051-19.105.178-12.723.562-25.439-.067-38.129-.272-6.346-.928-12.67-1.884-18.944-.266-1.564-.509-3.134-.793-4.695-.313-1.556-.618-3.114-.983-4.66-.695-3.098-1.498-6.173-2.385-9.224-3.525-12.218-8.282-24.042-13.035-35.836Z" fill="#1c2540"/></g></g><g><g><path d="M480.82,260.049c-24.536,30.595-36.869,70.551-33.926,109.465l-1.469.102c-2.476-39.333,10.479-79.282,35.395-109.567Z" fill="#1c2540"/></g></g><g><g><path d="M451.677,403.183h-24.827c-2.347,0-4.31-1.785-4.532-4.122l-2.797-29.477h39.485l-2.797,29.477c-.222,2.337-2.185,4.122-4.532,4.122Z" fill="#ff4846"/><polygon points="458.177,378.313 459.006,369.584 419.521,369.584 420.349,378.313" opacity="0.5" fill="#871a1a"/><rect width="44.389" height="8.093" rx="0" ry="0" transform="translate(417.069 363.698)" fill="#ff4846"/></g></g><g id="eeaCT6btBIy83" transform="matrix(.995102-.098856 0.098856 0.995102-29.579673 46.140653)"><g><path d="M485.96,266.508c-1.391,2.525-3.607,4.468-5.639,6.522-1.009,1.016-1.98,2.076-2.908,3.165-3.666,4.292-6.706,9.113-9.018,14.266-1.693,3.769-2.989,7.722-3.85,11.771-.066.324-.133.64-.199.964-1.082,5.513-1.494,11.174-3.121,16.555-.361,1.178-1.016,2.937-1.921,4.777-2.054,4.203-5.359,8.819-9.135,7.832-.471-.11-.95-.324-1.428-.626-.957-.604-1.737-1.428-2.37-2.4-2.275-3.497-2.65-8.922-2.341-13.029.059-.81.147-1.561.25-2.238.707-4.645,2.355-9.054,4.115-13.427.743-1.855,1.516-3.71,2.238-5.572c1.347-3.474,2.562-7.008,3.857-10.504c1.347-3.651,2.783-7.266,4.549-10.733c1.384-2.716,3.011-5.359,4.902-7.773c2.827-3.614,6.242-6.713,10.328-8.76c1.921-.964,4.019-1.686,6.169-1.656c2.15.037,4.358.92,5.617,2.665c1.686,2.342,1.296,5.669-.095,8.201Z" fill="#80d4a9"/></g><path d="M485.96,266.508c-1.391,2.525-3.607,4.468-5.639,6.522-1.009,1.016-1.98,2.076-2.908,3.165-.795.39-1.583.802-2.356,1.244-3.003,1.745-5.837,4.277-6.625,7.663-.412,1.752-.236,3.556-.037,5.359-1.693,3.769-2.989,7.722-3.85,11.771-.066.324-.133.64-.199.964-2.289,2.635-4.844,5.175-5.837,8.451-.78,2.576-.515,5.344-.059,7.994.28,1.627.633,3.254.854,4.888-2.054,4.203-5.359,8.819-9.135,7.832-.471-.11-.95-.324-1.428-.626-.957-.604-1.737-1.428-2.37-2.4-2.275-3.497-2.65-8.922-2.341-13.029c1.627-1.752,3.673-3.195,4.733-5.329c1.59-3.187.567-6.743-.368-10.335.743-1.855,1.516-3.71,2.238-5.572c1.347-3.474,2.562-7.008,3.857-10.504c2.731-1.848,5.558-3.681,7.133-6.463c1.752-3.121,1.612-6.905,2.069-10.453.066-.53.154-1.06.25-1.59c2.827-3.614,6.242-6.713,10.328-8.76c1.921-.964,4.019-1.686,6.169-1.656c2.15.037,4.358.92,5.617,2.665c1.685,2.34,1.295,5.667-.096,8.199Z" opacity="0.19" fill="#80d4a9"/></g><g id="eeaCT6btBIy87" transform="matrix(.994065-.108784 0.108784 0.994065-30.938428 49.614657)"><path d="M448.351,282.32c-.221,4.314.442,8.613.685,12.919.044.817.081,1.634.081,2.451v.007c.029,3.519-.383,7.059-1.87,10.225-1.87,3.982-7.368,9.511-11.55,5.543-1.568-1.48-2.687-3.349-3.467-5.396-1.369-3.578-1.708-7.7-1.597-11.263.155-4.903,1.001-9.827.935-14.708-.015-1.472-.11-2.937-.339-4.402-.258-1.671-.677-3.29-1.207-4.873-2.908-8.605-9.305-16.01-12.956-24.491-.802-1.855-1.465-3.769-1.987-5.712-1.649-6.125-1.958-12.602-.861-18.845.155-.869.331-1.73.537-2.584.905-3.754,2.937-7.913,6.618-8.782.14-.037.287-.066.434-.088c4.071-.648,7.472,2.981,9.776,6.397c2.694,3.975,5.064,8.156,7.317,12.396c1.001,1.862,1.973,3.732,2.944,5.602c3.018,5.801,6.08,11.807,7.729,18.072c0,0,0,0,.007.007.824,3.128,1.296,6.323,1.229,9.584v.206c-.168,5.972-2.148,11.773-2.458,17.735Z" fill="#80d4a9"/><path d="M448.609,295.791c.177.626.346,1.259.508,1.899v.007c.029,3.519-.383,7.059-1.87,10.225-1.87,3.982-7.368,9.511-11.55,5.543-1.568-1.48-2.687-3.349-3.467-5.396c1.104-.111,2.113-.508,2.989-1.325c1.435-1.347,2.12-3.335,2.326-5.3.714-6.794-3.6-12.86-5.977-19.345-.015-1.472-.11-2.937-.339-4.402-.258-1.671-.677-3.29-1.207-4.873.096-6.331,1.664-12.904-1.561-18.219-3.128-5.153-9.783-7.192-13.383-11.984-1.649-6.125-1.958-12.602-.861-18.845.147-.442.302-.876.464-1.303c1.009-2.709,2.186-5.41,4.041-7.634.766-.92,1.664-1.752,2.65-2.429.14-.037.287-.066.434-.088c4.071-.648,7.472,2.981,9.776,6.397c2.694,3.975,5.064,8.156,7.317,12.396.022.802.037,1.605.066,2.4.162,4.932.751,10.129,3.673,14.104c1.686,2.282,4.019,3.99,5.963,6.051.339.353.663.729.972,1.119c0,0,0,0,.007.007.824,3.128,1.296,6.323,1.229,9.584-.523,1.016-1.163,1.995-1.73,2.981-2.665,4.623-3.894,10.055-3.482,15.378.347,4.462,1.805,8.746,3.012,13.052Z" transform="translate(.000002 0.000001)" opacity="0.19" fill="#80d4a9"/></g><g id="eeaCT6btBIy90" transform="matrix(.997392-.072175 0.072175 0.997392-22.432575 31.584633)"><path d="M435.153,319.325c-.022.405-.052.81-.088,1.215-.302,3.342-1.008,11.16-5.315,11.925-3.047.537-7.479-4.814-9.908-6.5-1.362-.942-2.76-1.884-4.093-2.893-2.135-1.597-4.115-3.379-5.565-5.646-1.332-2.076-2.091-4.38-2.584-6.78-.788-3.813-.92-7.884-1.634-11.726-.316-1.722-.751-3.401-1.288-5.05-1.973-6.036-5.315-11.587-9.187-16.776c0,0,0,0-.007,0-1.914-2.569-3.953-5.05-6.029-7.457-.721-.832-1.45-1.693-2.157-2.584-2.444-3.106-4.505-6.551-4.13-10.372.493-4.947,5.366-8.738,10.335-8.966c4.969-.236,9.724,2.503,12.963,6.279.928,1.075,1.737,2.23,2.473,3.438c1.833,3.018,3.136,6.389,4.255,9.768.795,2.407,1.509,4.844,2.304,7.251.766,2.311,1.605,4.608,2.657,6.802c1.075,2.245,2.356,4.373,3.732,6.448c2.827,4.277,6.029,8.34,8.561,12.75.957,1.664,1.818,3.371,2.525,5.16c1.723,4.343,2.43,9.054,2.18,13.714Z" fill="#80d4a9"/><path d="M435.153,319.325c-.022.405-.052.81-.088,1.215-.302,3.342-1.008,11.16-5.315,11.925-3.047.537-7.479-4.814-9.908-6.5-1.362-.942-2.76-1.884-4.093-2.893.515-2.54.986-5.234-.206-7.486-1.48-2.805-4.836-3.754-7.943-4.939-.788-3.813-.92-7.884-1.634-11.726-.316-1.722-.751-3.401-1.288-5.05.876-1.7,1.708-3.423,2.253-5.263c1.09-3.688.618-8.274-2.517-10.497-2.297-1.627-5.374-1.56-8.156-1.141-.25.037-.508.081-.766.125c0,0,0,0-.007,0-1.914-2.569-3.953-5.05-6.029-7.457-.721-.832-1.45-1.693-2.157-2.584c3.813-3.003,8.097-5.433,12.632-7.162c2.79-1.067,5.683-1.87,8.627-2.392.125-.022.25-.044.383-.066c1.833,3.018,3.136,6.389,4.255,9.768.795,2.407,1.509,4.844,2.304,7.251-.353.817-.685,1.649-.942,2.503-.972,3.187-.714,7.162,1.929,9.187c1.516,1.17,3.43,1.435,5.403,1.561c2.827,4.277,6.029,8.34,8.561,12.75-.802,1.796-1.767,3.526-2.488,5.359-1.075,2.753-1.524,6.036.037,8.539c1.536,2.455,4.569,3.53,7.153,4.973Z" opacity="0.19" fill="#80d4a9"/></g></g><g><g><g><g><path d="M108.567,193.952v2.268h-2.024v-2.207c-2.004-.121-3.927-.749-5.04-1.619l1.113-2.469c1.012.748,2.469,1.295,3.927,1.436v-3.379c-2.247-.547-4.756-1.295-4.756-4.19c0-2.146,1.558-3.987,4.756-4.352v-2.246h2.024v2.206c1.518.121,2.995.527,4.109,1.234l-1.012,2.49c-1.033-.588-2.085-.931-3.097-1.053v3.441c2.247.527,4.716,1.275,4.716,4.129c0,2.105-1.539,3.927-4.716,4.311Zm-2.024-8.946v-2.874c-1.073.243-1.498.83-1.498,1.498c0,.708.607,1.093,1.498,1.376Zm3.482,4.877c0-.708-.588-1.093-1.458-1.396v2.793c1.012-.222,1.458-.749,1.458-1.397Z" fill="#fff"/></g><g><path d="M99.723,180.324v1.114h-.994v-1.084c-.985-.059-1.929-.368-2.476-.796l.547-1.213c.497.368,1.213.636,1.929.706v-1.66c-1.104-.269-2.337-.636-2.337-2.059c0-1.054.766-1.959,2.337-2.138v-1.104h.994v1.084c.746.06,1.472.259,2.019.607l-.497,1.223c-.507-.289-1.024-.458-1.521-.517v1.691c1.104.259,2.317.626,2.317,2.029-.002,1.033-.757,1.928-2.318,2.117Zm-.995-4.395v-1.412c-.527.119-.736.408-.736.736c0,.347.299.537.736.676Zm1.711,2.396c0-.348-.289-.537-.716-.686v1.372c.497-.109.716-.368.716-.686Z" fill="#fff"/></g></g><g id="eeaCT6btBIy100"><path d="M217.584,132.342c0,4.488-6.085,13.78-9.142,18.165-.831,1.192-2.588,1.192-3.419,0-3.056-4.384-9.142-13.677-9.142-18.165c0-5.993,4.858-10.851,10.851-10.851c5.994,0,10.852,4.859,10.852,10.851Z" transform="translate(-.345991-.758257)" fill="#d6edf1"/><path d="M211.244,132.342c0,2.491-2.02,4.511-4.511,4.511s-4.511-2.02-4.511-4.511s2.02-4.511,4.511-4.511c2.491.001,4.511,2.02,4.511,4.511Z" fill="#fff"/></g><g><polygon id="eeaCT6btBIy104" points="296.38,72.162 298.691,76.846 303.86,77.597 300.12,81.243 301.003,86.391 296.38,83.96 291.757,86.391 292.639,81.243 288.899,77.597 294.068,76.846" transform="translate(-.367418 0)" fill="#f5ad49"/><polygon id="eeaCT6btBIy105" points="313.958,72.162 316.27,76.846 321.438,77.597 317.698,81.243 318.581,86.391 313.958,83.96 309.335,86.391 310.218,81.243 306.478,77.597 311.646,76.846" transform="translate(-.52012 0)" fill="#f5ad49"/><polygon id="eeaCT6btBIy106" points="331.536,72.162 333.848,76.846 339.017,77.597 335.276,81.243 336.159,86.391 331.536,83.96 326.913,86.391 327.796,81.243 324.056,77.597 329.225,76.846" fill="#f5ad49"/><polygon id="eeaCT6btBIy107" points="349.115,72.162 351.426,76.846 356.595,77.597 352.855,81.243 353.738,86.391 349.115,83.96 344.492,86.391 345.375,81.243 341.634,77.597 346.803,76.846" fill="#f5ad49"/><polygon id="eeaCT6btBIy108" points="366.693,72.162 369.005,76.846 374.173,77.597 370.433,81.243 371.316,86.391 366.693,83.96 362.07,86.391 362.953,81.243 359.213,77.597 364.382,76.846" fill="#f5ad49"/></g><g id="eeaCT6btBIy109"><path d="M45.797,123.999h-30.468c-.681,0-1.234.552-1.234,1.234v19.277c0,.681.553,1.234,1.234,1.234h20.505l9.74,3.887c.698.279,1.458-.236,1.458-.988v-4.133-1.638-17.638c-.001-.683-.554-1.235-1.235-1.235Z" fill="#f5ad49"/><g><path d="M22.935,134.797c0,.793-.643,1.436-1.436,1.436s-1.436-.643-1.436-1.436.643-1.436,1.436-1.436s1.436.643,1.436,1.436Z" fill="#fff"/><path d="M31.999,134.797c0,.793-.643,1.436-1.436,1.436s-1.436-.643-1.436-1.436.643-1.436,1.436-1.436s1.436.643,1.436,1.436Z" fill="#fff"/><path d="M41.063,134.797c0,.793-.643,1.436-1.436,1.436s-1.436-.643-1.436-1.436.643-1.436,1.436-1.436s1.436.643,1.436,1.436Z" fill="#fff"/></g></g><g id="eeaCT6btBIy115"><g><path d="M143.888,101.388h-23.138c-.682,0-1.234.553-1.234,1.234v19.277c0,.682.553,1.234,1.234,1.234h13.175l9.74,3.886c.698.279,1.457-.236,1.457-.988v-4.133-1.638-17.638c0-.681-.552-1.234-1.234-1.234Z" fill="#ff4846"/></g><g><path d="M127.03,110.001c0-1.516.926-2.48,2.236-2.48c1.311,0,2.223.951,2.223,2.48c0,1.53-.913,2.481-2.223,2.481s-2.236-.964-2.236-2.481Zm3.175,0c0-.964-.373-1.426-.938-1.426-.552,0-.938.476-.938,1.426c0,.951.386,1.427.938,1.427.565,0,.938-.463.938-1.427Zm4.421-2.378h1.529l-6.144,8.997h-1.53l6.145-8.997Zm-1.478,6.62c0-1.516.925-2.481,2.223-2.481c1.311,0,2.236.964,2.236,2.481c0,1.516-.925,2.48-2.236,2.48-1.298,0-2.223-.964-2.223-2.48Zm3.162,0c0-.951-.373-1.426-.938-1.426-.553,0-.938.463-.938,1.426s.386,1.426.938,1.426c.565,0,.938-.475.938-1.426Z" fill="#fff"/></g></g><g><g><g><path d="M57.037,225.917c-.473,1.43-.851,2.883-1.14,4.351" fill="none" stroke="#fff" stroke-miterlimit="10"/><path d="M55.224,239.258c.35,8.754,3.516,17.481,8.694,24.609c7.847,10.802,19.868,18.119,32.664,21.93s26.371,4.328,39.691,3.409c18.735-1.293,37.155-5.356,55.742-8.043s37.71-3.977,56.011.235c15.354,3.534,30.176,11.38,40.16,23.382" fill="none" stroke="#fff" stroke-miterlimit="10" stroke-dasharray="9.0335,9.0335"/><path d="M290.934,308.367c.861,1.223,1.674,2.485,2.436,3.784" fill="none" stroke="#fff" stroke-miterlimit="10"/></g></g><g id="eeaCT6btBIy126" transform="matrix(-.68559-.727988 0.727988-.68559 135.622858 487.587713)"><polygon points="84.441,212.936 56.247,222.27 49.44,215.425" opacity="0.5" fill="#80c8d4"/><polygon points="58.641,225.26 55.929,228.309 60.53,226.813" fill="#577bb5"/><path d="M58.641,225.26l7.626,10.679c0,0,18.225-23.13,18.174-23.003-.052.128-25.8,12.324-25.8,12.324Z" opacity="0.5" fill="#80c8d4"/><polygon points="55.929,228.309 56.247,222.27 84.441,212.936 58.641,225.26" fill="#4e6fa3"/></g></g></g><g><path d="M35.499,199.327c0,2.726-2.21,4.936-4.936,4.936s-4.936-2.21-4.936-4.936s2.21-4.936,4.936-4.936s4.936,2.209,4.936,4.936Z" fill="#d6edf1"/><circle r="3.468" transform="translate(24.201 214.957)" fill="#d6edf1"/><path d="M98.336,210.177c0,2.23-1.808,4.038-4.038,4.038s-4.038-1.808-4.038-4.038s1.808-4.038,4.038-4.038s4.038,1.808,4.038,4.038Z" fill="#fff"/><path d="M107.904,227.574c0,1.732-1.404,3.136-3.136,3.136s-3.136-1.404-3.136-3.136s1.404-3.136,3.136-3.136c1.732-.001,3.136,1.404,3.136,3.136Z" fill="#fff"/><path d="M262.919,238.087c0,.758-.615,1.373-1.373,1.373s-1.373-.615-1.373-1.373.615-1.373,1.373-1.373c.759,0,1.373.615,1.373,1.373Z" fill="#fff"/><path d="M57.735,275.807c0,1.252-1.015,2.267-2.267,2.267s-2.267-1.015-2.267-2.267s1.015-2.267,2.267-2.267s2.267,1.015,2.267,2.267Z" fill="#fff"/><circle r="2.082" transform="translate(218.949 326.193)" fill="#fff"/><path d="M454.917,155.751c0,1.133-.918,2.051-2.051,2.051s-2.051-.918-2.051-2.051c0-1.132.918-2.05,2.051-2.05s2.051.918,2.051,2.05Z" fill="#d6edf1"/><circle r="2.256" transform="translate(459.202 215.905)" fill="#fff"/><path d="M472.223,180.246c0,1.399-1.134,2.532-2.532,2.532-1.399,0-2.532-1.134-2.532-2.532c0-1.399,1.134-2.532,2.532-2.532c1.398-.001,2.532,1.133,2.532,2.532Z" fill="#d6edf1"/><circle r="2.181" transform="translate(271.275 106.205)" fill="#d6edf1"/><path d="M109.672,109.954c0,.866-.702,1.567-1.567,1.567s-1.568-.702-1.568-1.567c0-.866.702-1.567,1.568-1.567s1.567.702,1.567,1.567Z" fill="#d6edf1"/></g></g><g transform="translate(-.692785-1.381607)"><ellipse rx="51.027" ry="4.309" transform="translate(311.2 407.28)" opacity="0.5" fill="url(#eeaCT6btBIy145-fill)"/><g><g><g><g><g><path d="M301.343,323.875c.751,10.409.788,19.868.39,28.274-1.369,28.856-7.825,45.345-7.825,45.345l-9.702-.221-6.08-87.863-.685-9.893c2.01-.177,4.012-.375,5.977-.552c7.81-.685,15.591-1.722,23.342-2.893-2.229,15.782-5.417,27.803-5.417,27.803Z" fill="#c7683c"/></g><path d="M301.343,323.875c.751,10.409.788,19.868.39,28.274l-2.166-23.206c-1.033-11.069-10.323-19.533-21.441-19.533v0l-.685-9.893c2.01-.177,4.012-.375,5.977-.552c7.81-.685,15.591-1.722,23.342-2.893-2.229,15.782-5.417,27.803-5.417,27.803Z" opacity="0.5" fill="#c7683c"/></g><g><path d="M295.109,397.052c0,0,1.877,5.727.692,8.907h-24.932c0,0-1.634-4.586,5.447-4.086l7.14-4.38-.876-14.597c0,0,4.012-2.76,7.015,1.126l8.708.751-3.194,12.279Z" fill="#e6e6e6"/><path d="M289.595,384.023c0,0-1.752,11.962-2.282,13.471-.537,1.502-3.165,5.447-6.044,5.477-2.886.03-4.954-1.097-4.954-1.097l7.14-4.38-.876-14.597c.001,0,4.013-2.76,7.016,1.126Z" fill="#a9c0c4"/></g></g><g><g><g><path d="M321.776,293.489c-3.92.79-7.886,1.48-11.906,2.104-4.681.727-9.372,1.415-14.072,2.018c10.449,30.33,24.468,67.115,36.933,92.021c3.915,1.251,6.182-2.463,9.457-3.144-.637-23.185-9.721-47.04-18.26-68.149-.438-7.248-1.055-15.84-2.152-24.85Z" fill="#d4774c"/></g></g><g><path d="M344.013,385.757c0,0,4.128,4.391,4.403,7.773l-22.58,10.571c0,0-3.424-3.46,3.201-6.009l4.61-6.994-6.982-12.849c0,0,2.463-4.201,6.831-1.954l8.205-3.012l2.312,12.474Z" fill="#e6e6e6"/><path d="M333.496,376.294c0,0,3.485,11.576,3.645,13.168.15,1.588-.557,6.275-3.151,7.522-2.601,1.25-4.952,1.107-4.952,1.107l4.61-6.994-6.982-12.849c-.001,0,2.462-4.201,6.83-1.954Z" fill="#a9c0c4"/></g></g></g><g><g><g><g><g><g><path d="M333.26,265.442c-2.51.788-4.895,1.862-7.435,2.496-4.77-13.736-9.805-28.539-16.033-41.031-1.421-2.849-2.805-5.514-4.166-8.061-1.929-3.622-3.82-7.008-5.734-10.372c4.071-1.649,8.06-3.504,12.05-5.352c1.325-.611,2.657-1.222,3.982-1.833c1.502,3.335,2.849,6.728,4.085,10.136c1.023,2.819,1.973,5.646,2.863,8.458c4.801,15.194,7.804,29.917,10.388,45.559Z" fill="#d4774c"/></g><path d="M328.782,261.348c0,0,1.777.687,3.667,2.535c1.889,1.848,2.121,5.559,3.217,7.173c1.095,1.614,2.131,2.952,1.76,3.401s-1.027-.19-2.977-2.564c0,0-1.217-.915-.665.466s2.691,4.23,2.027,4.946c-.539.58-3.305-3.885-3.632-3.954-.328-.069,2.242,5.861,1.172,6.689s-2.164-6.293-2.95-6.379c-.785-.087.576,4.948-.122,5.204-1.528.561-2.026-7.699-2.708-7.527s-1.209,3.236-2.133,3.055c-.924-.182.277-3.314.225-3.944-.051-.63-1.361-7.911,3.119-9.101Z" fill="#d4774c"/></g><path d="M320.01,211.426l-14.384,7.42c-1.929-3.622-3.82-7.008-5.734-10.372c4.071-1.649,8.06-3.504,12.05-5.352c1.325-.611,2.657-1.222,3.982-1.833c1.502,3.335,2.849,6.729,4.086,10.137Z" fill="#bf6237"/></g><path d="M318.905,205.287c0,0-11.653,7.987-16.916,8.362l-14.634-26.684c0,0-.096-1.48.118-3.519.736-6.956,8.966-10.372,14.362-5.933l.155.132c1.104.928,2.51,2.724,4.034,4.969c4.049,5.955,8.951,15.09,11.373,19.735.942,1.812,1.508,2.938,1.508,2.938Z" fill="#b07df1"/></g><path d="M318.905,205.287c0,0-11.653,7.987-16.916,8.362l-14.634-26.684c0,0-.096-1.48.118-3.519.736-6.956,8.966-10.372,14.362-5.933l.155.132c1.104.928,2.51,2.724,4.034,4.969-.486,5.653-.972,11.314-1.457,16.967-.118,1.34-.214,2.775.434,3.953.832,1.531,2.702,2.208,4.446,2.289c2.996.132,5.992-1.222,7.95-3.475.942,1.813,1.508,2.939,1.508,2.939Z" opacity="0.5" fill="#b07df1"/></g><g><g><path d="M293.439,173.12v-16.698h-11.1v17.528c-2.718.981-5.07,2.838-6.677,5.289-.9,1.372-1.732,2.527-2.477,3.6c1.034.506,2.118.938,3.224,1.317.403-.047.786-.092,1.115-.126c3.221-.336,6.487-.998,9.422-2.406c2.303-1.105,4.468-2.442,6.093-4.402.029-.158.054-.315.109-.478.434-1.281.965-2.409,1.608-3.494-.448-.05-.888-.093-1.317-.13Z" fill="#d4774c"/><path d="M293.274,160.546c-.979,2.665-2.238,5.101-3.791,6.632-1.619,1.612-3.224,2.51-4.645,3.003-.928.324-1.781.471-2.496.53v-2.915c.847.066,2.179.022,3.747-.53c1.421-.486,3.025-1.391,4.652-2.996.958-.949,1.804-2.245,2.533-3.724Z" fill="#bf6237"/></g><g><path d="M327.415,297.765c-.773.199-2.142.515-3.953.92-9.732,2.149-32.264,6.669-44.38,7.28-1.45.074-2.761.096-3.872.044l-1.126-81.554c0,0-1.104-6.699-2.253-13.596-1.111-6.618-2.267-13.419-2.54-14.686-.567-2.584-1.082-4.233,3.43-13.162c4.505-8.922,9.68-9.098,9.68-9.098-3.916.795-8.164,7.81-8.164,7.81s9.054-2.503,12.411-6.007c3.364-3.511,7.42-2.768,7.42-2.768c3.43.611,5.631,2.576,7.037,4.741c1.884,2.908,2.473,6.478,1.848,9.886-.743,4.049-1.163,9.275-1.384,14.214-.383,8.127-.258,15.473-.258,15.473c13.515,13.294,10.924,34.193,10.924,34.193l15.18,46.31Z" fill="#b07df1"/><g><g><path d="M292.582,202.603c-.602,4.177-1.114,8.367-1.426,12.571-.164,2.1-.272,4.205-.275,6.306-.006.526-.001,1.05.026,1.574.016.524.035,1.048.09,1.567l.068.78c.034.259.084.516.125.774.089.516.166,1.031.264,1.547c1.673,8.258,3.581,16.485,5.487,24.704l5.681,24.674l2.826,12.341l2.775,12.354c-2.124-8.17-4.151-16.364-6.152-24.565-1.999-8.201-3.925-16.419-5.846-24.639l-2.766-12.357c-.884-4.129-1.821-8.244-2.559-12.41-.091-.522-.162-1.051-.244-1.577-.037-.263-.084-.525-.114-.79l-.057-.797c-.048-.532-.059-1.063-.066-1.593-.018-.531-.015-1.061-.001-1.591.038-2.119.176-4.23.381-6.334.433-4.203,1.018-8.388,1.783-12.539Z" fill="#c2612d"/></g></g><path d="M298.169,189.269l-8.635,26.471c0,0-.001.001-.002.003-8.373,14.365-12.549,30.798-11.963,47.415l1.512,42.808c-1.45.074-2.761.096-3.872.044l-1.126-81.554c0,0-1.104-6.699-2.253-13.596l22.923-24.991l3.416,3.4Z" opacity="0.5" fill="#7205fb"/><path d="M327.415,297.765c-.773.199-2.142.515-3.953.92l-15.238-47.642c3.32-14.759-10.055-31.447-10.055-31.447l3.401-17.807c-.383,8.127-.258,15.473-.258,15.473c13.515,13.294,10.924,34.193,10.924,34.193l15.179,46.31Z" opacity="0.5" fill="#9141f6"/></g></g><g><g id="eeaCT6btBIy186" transform="matrix(.81374-.581229 0.581229 0.81374-53.659263 205.968825)"><g><g><path d="M230.847,199.949c-2.288.417-3.267.91-5.282,2.075-3.114-5.553-6.129-11.033-8.698-16.9c2.679-1.167,5.419-2.18,8.077-3.397c2.695,6.272,5.496,11.274,5.903,18.222Z" fill="#67b38b"/><path d="M225.481,200.018c-3.056-4.066-4.736-9.111-6.963-13.657.409-.234.538-.581.401-1.03c1.603-.646,3.213-1.275,4.8-1.96.235.403.587.545,1.034.403c2.249,4.659,4.914,9.143,5.146,14.437-.449.123-.614.454-.643.897-1.146.141-1.944.515-2.858,1.217-.232-.331-.533-.494-.917-.307Z" fill="#80d4a9"/><path d="M227.639,191.006c.645,1.497-.157,2.986-1.609,3.592-1.452.607-3.025.125-3.653-1.347-.629-1.472-.031-3.098,1.448-3.738s3.169-.004,3.814,1.493Z" fill="#67b38b"/><g><g><path d="M226.518,191.165c.181-.068.341-.141.514-.211.064.148.129.295.191.443-.165.068-.33.137-.494.206.133.415.188.816.085,1.244-.216-.006-.431-.012-.647-.01.077-.338.062-.647-.031-.981-.248.111-.506.218-.749.33.036.609.144,1.093-.544,1.408-.51.233-1.08-.073-1.365-.578-.182.066-.345.138-.52.206-.061-.148-.124-.295-.186-.443.169-.067.339-.133.508-.199-.102-.341-.157-.679-.123-1.035.223-.001.446-.001.669,0-.018.27.002.53.068.793.257-.105.523-.208.764-.335-.033-.592-.222-1.124.468-1.448.509-.239,1.106.108,1.392.61Zm-1.782,1.324c-.217.09-.433.182-.648.275.123.146.275.248.463.166s.182-.265.185-.441Zm.747-1.24c-.184.084-.176.273-.177.447.208-.089.415-.18.621-.273-.117-.138-.26-.258-.444-.174Z" fill="#80d4a9"/></g></g></g><g><path d="M230.627,200.815c-2.316-.214-3.391-.004-5.646.576-1.502-6.187-2.929-12.277-3.823-18.619c2.894-.402,5.806-.639,8.694-1.095.905,6.765,2.254,12.337.775,19.138Z" fill="#67b38b"/><path d="M225.44,199.436c-1.848-4.739-2.106-10.05-3.026-15.028.457-.115.675-.415.664-.883c1.718-.19,3.437-.362,5.15-.594.117.451.419.683.887.666.91,5.093,2.269,10.129,1.066,15.29-.466-.002-.714.272-.861.69-1.142-.173-2.011-.028-3.08.401-.134-.381-.38-.619-.8-.542Z" fill="#80d4a9"/><path d="M229.947,191.338c.218,1.615-.956,2.833-2.517,3.026s-2.947-.695-3.155-2.282c-.209-1.587.805-2.991,2.402-3.21c1.596-.217,3.052.851,3.27,2.466Z" fill="#67b38b"/><g><g><path d="M228.824,191.19c.193-.016.366-.044.552-.064.021.159.045.319.065.479-.177.021-.354.043-.531.065.016.436-.038.836-.253,1.221-.206-.064-.412-.128-.62-.184.165-.305.234-.606.234-.953-.269.04-.546.074-.81.116-.129.596-.156,1.092-.903,1.209-.554.087-1.021-.361-1.159-.924-.194.015-.369.04-.556.058-.02-.159-.04-.318-.06-.476.181-.019.362-.037.543-.055-.006-.355.032-.696.161-1.029.215.059.43.12.645.18-.09.255-.141.511-.148.782.276-.032.559-.06.826-.117.128-.579.089-1.143.84-1.269.553-.096,1.034.4,1.174.961Zm-2.072.794c-.233.029-.466.059-.698.091.079.173.198.313.401.284s.246-.206.297-.375Zm1.052-.993c-.2.031-.243.215-.291.383.225-.03.448-.062.672-.096-.075-.164-.181-.318-.381-.287Z" fill="#80d4a9"/></g></g></g><g><path d="M230.181,201.59c-2.173-.83-3.265-.918-5.592-.967.22-6.363.487-12.612,1.335-18.96c2.895.393,5.764.949,8.667,1.288-.951,6.758-1.153,12.488-4.41,18.639Z" fill="#67b38b"/><path d="M225.558,198.864c-.502-5.062.679-10.246,1.135-15.288.471.012.762-.217.877-.672c1.706.28,3.408.578,5.12.816-.009.466.22.77.675.881-.495,5.15-.544,10.366-3.094,15.012-.448-.128-.76.07-1.015.433-1.053-.474-1.929-.569-3.074-.443-.026-.405-.199-.7-.624-.739Z" fill="#80d4a9"/><path d="M232.079,192.28c-.225,1.614-1.684,2.471-3.239,2.236-1.556-.235-2.65-1.463-2.424-3.047.227-1.585,1.581-2.664,3.178-2.444s2.711,1.641,2.485,3.255Z" fill="#67b38b"/><g><g><path d="M231.038,191.834c.19.036.365.056.549.087-.022.159-.043.319-.067.478-.176-.028-.353-.054-.529-.081-.102.424-.262.795-.572,1.108-.181-.117-.362-.234-.548-.344.242-.249.388-.521.482-.854-.27-.034-.546-.076-.811-.107-.285.539-.444,1.009-1.196.921-.557-.066-.886-.623-.867-1.202-.19-.038-.366-.061-.551-.094.024-.158.047-.317.07-.475.179.031.359.062.538.093.09-.344.218-.662.432-.948.191.115.382.231.572.347-.155.222-.273.454-.354.713.274.044.555.093.827.11.279-.523.393-1.076,1.151-.995.561.059.891.666.874,1.243Zm-2.209.207c-.232-.035-.465-.069-.697-.101.03.188.107.355.31.382.203.028.293-.132.387-.281Zm1.281-.672c-.201-.024-.292.141-.383.291.224.032.449.062.673.089-.029-.18-.089-.356-.29-.38Z" fill="#80d4a9"/></g></g></g></g><g><path d="M288.504,208.813c-1.509,2.098-3.099,4.152-4.748,6.154-.118.155-.25.309-.375.464-1.59,1.929-4.336,4.954-6.75,7.56-2.856,3.092-7.354,4.005-11.189,2.274-2.54-1.148-5.285-2.407-7.103-3.29-4.888-2.392-9.57-5.175-14.229-8.083-4.66-2.9-9.283-5.926-14.045-8.789-1.362-.773-3.313-2.024-3.313-2.024-1.421-.258-1.443-1.774-1.443-1.774-1.089-.051-1.06-1.222-1.06-1.222-1.531-.538-.839-1.929-.839-1.929s1.877.743,1.936.523c.051-.221-4.829-3.283-3.659-3.703c1.17-.427,6.397,2.68,8.377,2.841c1.98.162,2.319-1.649,2.319-1.649l.427-1.612c0,0,.817.633,1.097,1.362.28.721-.206,3.393-.206,3.393c10.512,4.1,21.583,8.443,32.301,11.697c1.354-2.039,2.635-4.026,3.887-5.985c1.678-2.628,3.29-5.219,4.925-7.847c1.413,1.347,2.871,2.657,4.343,3.946c3.038,2.658,6.152,5.227,9.347,7.693Z" fill="#d4774c"/><path d="M288.504,208.813c-1.509,2.098-3.099,4.152-4.748,6.154-6.426-1.428-11.226-6.478-13.868-9.945c1.678-2.628,3.29-5.219,4.925-7.847c1.413,1.347,2.871,2.657,4.343,3.946c3.039,2.657,6.153,5.226,9.348,7.692Z" fill="#bf6237"/></g></g><g id="eeaCT6btBIy212" transform="matrix(.81374-.581229 0.581229 0.81374-53.97463 207.900545)"><path d="M271.731,199.978l14.566-21.286c0,0,11.539-5.262,14.368,7.8l-13.313,24.997c0-.001-10.358-1.877-15.621-11.511Z" fill="#b07df1"/><g><g><g><path d="M272.428,200.997c-.26-.321-.519-.642-.769-.97l-.033-.044.034-.056c.921-1.504,1.91-2.959,2.876-4.431.989-1.455,1.994-2.9,3.018-4.33c1.028-1.428,2.058-2.854,3.135-4.247c1.065-1.401,2.145-2.792,3.281-4.142-.904,1.516-1.864,2.992-2.838,4.458-.963,1.474-2.984,4.354-2.984,4.354s-2.051,2.859-3.102,4.27c-1.074,1.395-2.125,2.806-3.243,4.169l.001-.1c.214.353.419.711.624,1.069Z" fill="#9141f6"/></g><g><path d="M286.519,211.488c.444.203.889.404,1.328.617l-.112.036c.898-2.074,1.868-4.111,2.815-6.161.973-2.037,1.962-4.065,2.973-6.082c1.016-2.015,2.033-4.029,3.103-6.017c1.057-1.995,2.129-3.981,3.265-5.936-.878,2.083-1.82,4.135-2.777,6.18-.944,2.051-1.94,4.075-2.938,6.099-1.003,2.022-2.027,4.032-3.068,6.035-1.067,1.99-2.11,3.991-3.226,5.956l-.043.076-.069-.041c-.421-.247-.836-.505-1.251-.762Z" fill="#9141f6"/></g></g></g></g></g></g><g><g><path d="M269.141,154.979c.269-.981.935-1.859,1.54-2.704.375-.523.743-1.094.99-1.691.399-4.948,1.585-9.673,2.273-11.036c1.077-2.125,6.877-4.038,12.583-2.967c5.711,1.032,10.441,4.891,10.692,7.262.094.9.521,4.496-2.526,13.333-1.005,2.842-2.314,5.466-3.955,7.091-1.623,1.606-3.229,2.51-4.646,3.001-2.727.954-4.735.385-4.735.385l-1.088-.201c0,0-2.621-.234-5.103-2.811-.876-.909-1.735-2.114-2.454-3.698-.493-1.098-.81-2.415-.989-3.855-.78-.01-1.571-.278-2.171-.766-.393-.32-.545-.854-.411-1.343Z" fill="#d4774c"/><g><g><g><g><path d="M290.559,154.667c.137-.36.18-.729.189-1.106.019-.368.001-.741-.121-1.04-.23-.614-1.015-.672-1.561-.304-.567.365-1.097.932-1.388,1.557-.29.646-.356,1.415-.445,2.175-.123-.75-.22-1.543.039-2.331.273-.789.809-1.413,1.506-1.878.36-.218.829-.352,1.281-.257.456.077.876.462.977.897.122.428.063.839-.02,1.219-.098.372-.207.767-.457,1.068Z" fill="#bf6237"/></g><g><path d="M288.656,156.167c.17-.32.243-.636.291-.95.039-.314.053-.639.026-.948-.018-.307-.091-.594-.241-.823-.164-.218-.415-.435-.781-.432.303-.229.796-.146,1.098.134.323.285.448.702.48,1.078.02.379-.023.752-.164,1.105-.129.352-.384.672-.709.836Z" fill="#bf6237"/></g></g><g><g><path d="M276.338,158.941c-.157.285-.425.466-.701.612-.289.117-.6.207-.919.143.275-.165.544-.258.801-.396.271-.109.516-.254.819-.359Z" fill="#bf6237"/></g><g><path d="M277.064,156.55c-.29.912-.981,1.679-1.83,2.158-.427.236-.896.406-1.381.46-.48.081-.971.013-1.425-.107.933-.174,1.776-.394,2.534-.839.769-.421,1.44-1,2.102-1.672Z" fill="#bf6237"/></g></g><g><g><path d="M274.07,156.43c-.047.262-.136.368-.248.45-.121.069-.254.105-.512.038-.031-.267.078-.412.212-.507.141-.081.319-.119.548.019Z" fill="#bf6237"/></g></g><g id="eeaCT6btBIy238"><g><path d="M274.821,152.303c0,.799.484,1.446,1.081,1.446s1.081-.648,1.081-1.446c0-.799-.484-1.446-1.081-1.446s-1.081.647-1.081,1.446Z" fill="#5e2b13"/><g><path d="M274.395,150.678c.035.031.154.121.266.15.117.039.249.059.381.071.269.019.55-.004.829-.043.241-.034.464.135.498.376.033.241-.135.464-.376.497-.046.006-.096.004-.139-.003-.321-.055-.642-.128-.957-.253-.157-.066-.313-.143-.458-.25-.143-.118-.283-.223-.351-.479-.02-.074.025-.15.099-.17.047-.012.094,0,.128.03l.08.074Z" fill="#5e2b13"/></g></g></g><g><g><path d="M274.382,148.094c.358-.03.801-.059,1.205-.042.413.004.826.043,1.238.104.413.059.817.169,1.22.298.406.125.792.307,1.193.487l.018.008c.142.063.308,0,.371-.141.051-.113.02-.242-.066-.322-.348-.32-.731-.616-1.158-.841-.417-.249-.879-.408-1.345-.546-.468-.141-.955-.206-1.443-.222-.497-.003-.961.024-1.486.177-.283.083-.446.379-.364.663.072.248.309.404.557.383l.06-.006Z" fill="#5e2b13"/><path d="M273.428,147.159c-.057.213.018.45.181.614.161.163.364.253.558.312l.015.005c.15.046.31-.039.356-.189.046-.151-.039-.31-.189-.356-.034-.011-.071-.014-.105-.012-.149.011-.292.001-.408-.05-.058-.025-.111-.061-.151-.113-.041-.048-.071-.123-.08-.183l-.003-.019c-.008-.048-.053-.081-.101-.073-.037.005-.064.031-.073.064Z" fill="#5e2b13"/></g></g></g><circle r="4.95" transform="translate(282.402 160.725)" fill="#d46c46"/></g></g><g><path d="M280.267,167.45c0,0-2.621-.235-5.101-2.812-.662-.685-1.31-1.538-1.899-2.599c1.273,4.667,3.136,9.172,5.55,13.368c1.848-1.273,3.232-1.465,3.526-1.487v-6.124c-.626-.044-.986-.147-.986-.147l-1.09-.199Z" fill="#1a223b"/><path d="M309.012,174.23c-2.849-3.254-6.264-6.22-7.847-10.247-2.341-5.977-.14-12.911-2.01-19.051-1.369-4.505-5.013-8.252-9.474-9.754-2.871-.964-6.007-1.031-8.981-.427-2.819.567-5.646,1.818-7.361,4.13-1.84,2.488-2.12,5.778-2.083,8.87.015,1.126.059,2.26.147,3.386.103-.177.191-.368.265-.552.165-2.012.459-3.983.796-5.711c3.324.989,7.214.458,10.234-1.231-.742,1.668-.871,3.602-.356,5.354s1.668,3.309,3.195,4.312c.848-.828,1.579-1.949,2.681-2.385s2.496-.358,3.309.505c.794.843.809,2.207.316,3.255s-1.398,1.84-2.319,2.542c.122,1.541.771,3.079,1.759,4.268.598.72,1.335,1.323,2.153,1.778v9.618c.397.015.633.059.633.059c2.738.486,4.696,1.84,6.088,3.475.582.287,1.141.648,1.678,1.089l.155.132c2.238,1.884,5.72,7.317,8.936,12.882c1.259-1.281,2.194-2.841,2.554-4.601.884-4.239-1.612-8.435-4.468-11.696Z" fill="#1a223b"/></g></g></g></g><g><path d="M220.659,406.199c0,2.38-22.846,4.309-51.027,4.309s-51.027-1.929-51.027-4.309s22.845-4.309,51.027-4.309c28.181,0,51.027,1.929,51.027,4.309Z" opacity="0.5" fill="url(#eeaCT6btBIy252-fill)"/><g><g><g><g><polygon points="202.754,396.016 185.699,396.016 153.155,300.711 154.657,240.622 175.268,234.137 182.136,274.601" fill="#1c2540"/><path d="M190.145,396.016h-4.446l-32.544-95.305l1.502-60.089l20.611-6.485l6.868,40.464v0c-10.582,26.2-11.911,55.225-3.768,82.283l11.777,39.132Z" opacity="0.5" fill="#1c2540"/></g><g><path d="M186.923,397.272c0,0-2.255,3.563,0,8.359h27.393c0,0,.893-1.546,0-2.345s-9.956-1.047-13.999-7.266h-13.581l.187,1.252Z" fill="#e6e6e6"/><rect width="28.244" height="1.096" rx="0" ry="0" transform="translate(186.469 405.103)" fill="#a9c0c4"/></g></g><g><path d="M137.963,235.827c0,0-2.882,11.325-.783,20.04l.689,68.34-5.168,71.812h16.068L170.475,256.97l4.795-22.835-37.307,1.692Z" fill="#28365d"/><g><path d="M134.204,397.272c0,0-2.255,3.563,0,8.359h27.393c0,0,.893-1.546,0-2.345s-9.956-1.047-13.999-7.266h-13.582l.188,1.252Z" fill="#e6e6e6"/><rect width="28.244" height="1.096" rx="0" ry="0" transform="translate(133.75 405.103)" fill="#a9c0c4"/></g></g></g><g><g><g><path d="M156.798,179.59c2.87,2.419,6.76,5.806,10.626,6.376c2.01.296,3.495-.304,4.652-1.418.099-.263.203-.526.303-.789-.535-.805-1.098-1.661-1.69-2.615-1.588-2.558-2.903-4.551-5.024-5.705v-17.889h-10.598v16.605c-.999.058-2.064.157-3.181.292c1.439,1.829,3.007,3.537,4.912,5.143Z" fill="#ebaf7f"/><path d="M165.661,168.924v2.974c-.375-.081-.773-.191-1.185-.339-1.413-.493-3.018-1.391-4.645-3.003-.692-.685-1.332-1.553-1.914-2.547c1.406,1.229,2.768,1.965,3.997,2.385c1.569.552,2.901.596,3.747.53Z" fill="#e48855"/></g><g><path d="M176.666,224.368c-.486,6.846-.898,11.991-.898,11.991s-3.784.78-9.496,1.347c-.25.022-.501.051-.758.074-7.692.714-18.535.986-28.333-1.421l5.072-21.237l1.671-15.208l2.716-24.763c0,0,4.387-1.516,8.428-1.075c0,0,8.208,6.691,10.563,6.124.007,0,.022-.007.029-.007.302-.081.523-.221.677-.405.714-.802.191-2.429-.243-3.452-.228-.53-.434-.898-.434-.898s.147.029.375.103c.537.147,1.531.493,2.098,1.031.81.773,8.326,11.55,9.702,14.178.907,1.722-.256,20.692-1.169,33.618Z" fill="#ff4d72"/><path d="M154.737,174.369c0,0-.564-5.059.047-5.106s9.021,3.469,9.632,4.734c.611,1.264,1.512,6.092,1.512,6.092s-2.577,1.876-11.191-5.72Z" fill="#e13e5c"/><path d="M165.928,180.089l-.327-6.331.06-1.861c0,0,2.467.827,3.078,1.626s.408,4.333.408,4.333-.353,2.092-3.219,2.233Z" fill="#e13e5c"/><g><path d="M166.272,237.707c-.25.022-.501.051-.758.074c2.628-14.185.905-45.624.118-57.579.007,0,.022-.007.029-.007.302-.081.523-.221.677-.405.774,11.63,2.548,43.386-.066,57.917Z" fill="#e13e5c"/></g><path d="M176.666,224.368c-.486,6.846-.898,11.991-.898,11.991s-3.784.78-9.496,1.347c-.25.022-.501.051-.758.074-7.692.714-18.535.986-28.333-1.421l5.072-21.237l1.671-15.208c2.12-.758,4.321-1.237,6.522-1.384.353,7.898,4.365,15.554,10.659,20.346c4.446,3.387,9.974,5.294,15.561,5.492Z" opacity="0.5" fill="#871a1a"/></g></g><g id="eeaCT6btBIy279" transform="matrix(.976048 0.217557-.217557 0.976048 44.849162-26.993065)"><g><polygon points="219.154,213.222 219.154,216.866 164.718,216.866 173.547,213.889 175.522,213.222" fill="#c7762f"/><g><rect width="47.271" height="45.073" rx="0" ry="0" transform="translate(164.718 216.866)" fill="#f5ad49"/><g><g><rect width="19.865" height="2.766" rx="0" ry="0" transform="translate(166.853 254.835)" fill="#c7762f"/><rect width="13.327" height="2.012" rx="0" ry="0" transform="translate(166.853 251.629)" fill="#c7762f"/></g></g><path d="M208.343,223.372c0,1.996-1.618,3.615-3.615,3.615-1.996,0-3.615-1.618-3.615-3.615c0-1.996,1.618-3.615,3.615-3.615s3.615,1.619,3.615,3.615Z" fill="#c7762f"/><rect width="2.135" height="45.073" rx="0" ry="0" transform="matrix(-1 0 0-1 166.853 261.938)" opacity="0.5" fill="#f5ad49"/></g><g><polygon points="219.154,213.222 219.154,257.792 211.989,261.941 211.989,216.866 213.904,215.895" fill="#e38c3b"/><path d="M219.154,249.434v8.358l-7.164,4.149v-45.075l1.914-.971c-.184,6.855.114,13.716.895,20.528.369,3.211.862,6.459,2.164,9.415.564,1.286,1.296,2.512,2.191,3.596Z" opacity="0.5" fill="#e38c3b"/></g><path d="M219.154,213.222v.504c-20.468,2.63-37.759,1.155-45.606.163l1.974-.667h43.632Z" opacity="0.5" fill="#c7762f"/></g><g><path d="M172.502,257.663c0,0,3.708.279,3.929-.253.221-.533-3.467-1.719-3.467-1.719l-3.202-2.113c-2.136-2.547-4.308-5.134-6.477-7.748-.146.097-.29.196-.436.292-1.621,1.362-3.407,2.584-5.284,3.744-.674.622-1.367,1.241-2.076,1.845c2.766,2.453,5.581,4.887,8.454,7.324.98,1.404,3.337,4.207,3.337,4.207c1.157.257,2.481.056,2.481.056c1.101.094,2.585-.233,2.585-.233c1.18.143,1.939-.645,1.939-.645c2.931.658,4.524-.564,4.524-.564h-2.139l-4.168-4.193Z" fill="#ebaf7f"/><g><path d="M169.629,250.957l-1.59,1.325-5.624,4.667-1.332,1.104c0,0-30.829-27.487-32.139-32.19-.552-1.951-.199-5.764.39-9.548.898-5.705,2.341-11.307,4.188-16.776c2.415-7.14,6.456-18.322,9.238-21.826.125-.162.25-.309.368-.434.155-.155.309-.302.464-.442c5.815-5.226,14.987-.221,14.281,7.56-.147,1.649-.523,2.657-.523,2.657l-.729,2.282-.022.052-1.656,5.167-8.053,27.553l22.739,28.849Z" fill="#ff4d72"/><polygon points="169.629,250.957 168.039,252.282 142.003,221.196 144.012,219.819 141.002,215.042 146.015,216.867 156.6,189.388 154.944,194.556 146.891,222.109" opacity="0.5" fill="#871a1a"/><path d="M162.415,256.949l-1.332,1.104c0,0-30.829-27.487-32.139-32.19-.552-1.951-.199-5.764.39-9.548.898-5.705,2.341-11.307,4.188-16.776c2.415-7.14,6.456-18.322,9.238-21.826-2.657,8.23-13.876,43.387-12.691,47.31c1.223,4.034,27.576,27.671,32.346,31.926Z" opacity="0.5" fill="#c23246"/><g><g><g><path d="M159.641,238.282c-1.338-1.444-2.613-2.938-3.878-4.44-1.272-1.497-2.498-3.029-3.725-4.562-1.213-1.543-2.424-3.088-3.591-4.668l-1.748-2.372c-.562-.807-1.143-1.599-1.687-2.42.675.717,1.313,1.464,1.97,2.196l1.909,2.244c1.271,1.497,2.498,3.029,3.724,4.563c1.212,1.544,2.424,3.089,3.59,4.669c1.172,1.575,2.336,3.157,3.436,4.79Z" fill="#911b1a"/></g><g><path d="M156.619,189.339c-.649,2.771-1.376,5.518-2.115,8.263-.737,2.745-1.537,5.472-2.303,8.208-.823,2.72-1.615,5.449-2.466,8.161l-1.291,4.063c-.456,1.347-.888,2.701-1.366,4.042.317-1.387.681-2.761,1.02-4.143l1.094-4.121c.739-2.744,1.537-5.472,2.304-8.208.825-2.72,1.614-5.449,2.468-8.16.851-2.711,1.715-5.419,2.655-8.105Z" fill="#911b1a"/></g></g></g></g></g></g></g><g><g><g><path d="M178.863,156.107c-.269-.981-.935-1.859-1.54-2.704-.375-.524-.743-1.094-.99-1.691-.399-4.948-1.585-9.673-2.273-11.036-1.077-2.125-6.877-4.038-12.583-2.967-5.711,1.032-10.441,4.891-10.692,7.262-.094.9-.52,4.496,2.526,13.333c1.005,2.842,2.314,5.466,3.955,7.091c1.623,1.606,3.229,2.51,4.646,3.001c2.727.954,4.735.385,4.735.385l1.087-.201c0,0,2.621-.234,5.103-2.811.876-.909,1.735-2.114,2.454-3.698.493-1.098.81-2.415.989-3.855.78-.01,1.571-.278,2.171-.766.394-.32.546-.854.412-1.343Z" fill="#ebaf7f"/><g><g><g><g><path d="M157.445,155.794c-.249-.301-.358-.695-.458-1.067-.079-.381-.131-.79-.017-1.218.096-.437.519-.821.974-.898.452-.095.921.039,1.281.257.696.466,1.236,1.088,1.503,1.88.25.789.172,1.579.042,2.33-.097-.759-.144-1.531-.442-2.176-.296-.623-.822-1.192-1.391-1.556-.547-.368-1.329-.308-1.564.303-.13.298-.142.674-.118,1.041.01.376.053.744.19,1.104Z" fill="#e48855"/></g><g><path d="M159.348,157.295c-.332-.162-.569-.489-.706-.837-.147-.352-.185-.726-.167-1.104.033-.375.155-.795.482-1.076.305-.271.788-.371,1.096-.136-.361.003-.623.203-.783.429-.146.233-.222.517-.239.825-.037.634-.006,1.261.317,1.899Z" fill="#e48855"/></g></g><g><g><path d="M171.666,160.068c.302.105.548.25.818.359.258.137.526.231.801.396-.319.063-.63-.026-.919-.143-.275-.146-.543-.328-.7-.612Z" fill="#e48855"/></g><g><path d="M170.94,157.677c.66.674,1.332,1.253,2.102,1.671.377.221.781.387,1.201.524.42.151.865.211,1.333.315-.455.128-.944.177-1.425.104-.486-.047-.955-.221-1.382-.456-.423-.243-.813-.546-1.121-.92-.309-.368-.572-.778-.708-1.238Z" fill="#e48855"/></g></g><g><g><path d="M173.934,157.558c.116-.074.212-.087.305-.088.096-.006.171.03.244.068.066.05.13.103.165.193.038.085.066.177.047.315-.133.037-.222.035-.305.028-.086-.002-.146-.034-.207-.066-.054-.043-.109-.084-.146-.162-.042-.073-.081-.152-.103-.288Z" fill="#e48855"/></g></g><g><g id="eeaCT6btBIy326" transform="matrix(1 0 0 0.952932 0 7.221643)"><path d="M173.183,153.43c0,.799-.484,1.446-1.081,1.446s-1.081-.648-1.081-1.446c0-.799.484-1.446,1.081-1.446s1.081.648,1.081,1.446Z" fill="#5e2b13"/></g></g><g><g><path d="M173.622,149.222c-.358-.03-.801-.059-1.205-.042-.413.004-.826.043-1.238.104-.413.059-.817.169-1.22.297-.406.125-.792.307-1.194.487l-.018.008c-.141.064-.308,0-.371-.141-.051-.113-.02-.242.066-.322.348-.32.731-.616,1.158-.841.417-.249.879-.408,1.345-.546.467-.141.955-.206,1.443-.222.497-.003.961.024,1.486.177.283.083.446.379.364.663-.072.248-.309.404-.557.383l-.059-.005Z" fill="#5e2b13"/><path d="M174.575,148.287c.057.213-.018.45-.18.614-.161.163-.364.253-.558.312l-.015.005c-.15.046-.31-.039-.356-.189-.046-.151.039-.31.189-.356.035-.011.071-.014.105-.012.149.011.292.001.408-.05.058-.025.11-.061.151-.113.041-.048.071-.123.08-.183l.003-.019c.008-.048.053-.081.101-.073.037.005.064.031.072.064Z" fill="#5e2b13"/></g></g></g><path d="M170.552,161.853c0,2.734-2.216,4.95-4.95,4.95s-4.95-2.216-4.95-4.95s2.216-4.95,4.95-4.95c2.733,0,4.95,2.216,4.95,4.95Z" fill="#e9a770"/></g></g><path d="M164.674,146.029c.359,3.352-.673,6.832-2.802,9.446-.201-1.564-1.398-2.953-2.899-3.437-.737-.238-1.608-.245-2.223.226-.747.572-.887,1.659-.709,2.583.309,1.596,1.42,3.016,2.895,3.699-.234,1.01-.796,2.086-1.251,3.018s-1.153,1.781-2.092,2.221c-2.745-3.288-4.335-7.408-4.163-11.688.091-2.252-.536-4.699.359-6.767s2.496-3.786,4.376-5.029c1.879-1.243,4.03-2.033,6.225-2.543.68-.158,1.376-.291,2.073-.25s1.404.273,1.905.76c.639.622.857,1.564.874,2.455.039,2.153-.88,3.972-2.568,5.306Z" fill="#5e2b13"/></g><g><path d="M157.729,136.812c0,0-.893-.564-.125-1.19s2.208-.486,1.989.501l-1.864.689Z" fill="#ff4d72"/><path d="M151.401,154.101c0,0-4.511-9.333,2.882-15.348s19.17-4.072,21.293,4.072l-8.325,4.573-15.85,6.703Z" fill="#ff4d72"/><path d="M158.93,136.157c0,0,8.822,4.617,8.118,11.289l10.29-4.229c0,0-4.536-11.912-18.408-7.06Z" fill="#e13f5d"/><path d="M150.16,149.609c0,0,.637-.597,1.518-.166.489.24.82.717.957,1.245l.27,1.035-2.066.908c-.001-.001-.698-1.76-.679-3.022Z" fill="#5e2b13"/><path d="M161.474,149.842c0,0,14.987-6.114,15.003-8.303c0,0,7.094-2.879,9.538.222c2.443,3.101-26.616,8.959-26.616,8.959l2.075-.878Z" fill="#fe4c70"/></g></g></g></g></g>
<script><![CDATA[
!function(t,n){"object"==typeof exports&&"undefined"!=typeof module?module.exports=n():"function"==typeof __SVGATOR_DEFINE__&&__SVGATOR_DEFINE__.amd?__SVGATOR_DEFINE__(n):((t="undefined"!=typeof globalThis?globalThis:t||self).__SVGATOR_PLAYER__=t.__SVGATOR_PLAYER__||{},t.__SVGATOR_PLAYER__["5c7f360c"]=n())}(this,(function(){"use strict";function t(t,n){var e=Object.keys(t);if(Object.getOwnPropertySymbols){var r=Object.getOwnPropertySymbols(t);n&&(r=r.filter((function(n){return Object.getOwnPropertyDescriptor(t,n).enumerable}))),e.push.apply(e,r)}return e}function n(n){for(var e=1;e<arguments.length;e++){var r=null!=arguments[e]?arguments[e]:{};e%2?t(Object(r),!0).forEach((function(t){u(n,t,r[t])})):Object.getOwnPropertyDescriptors?Object.defineProperties(n,Object.getOwnPropertyDescriptors(r)):t(Object(r)).forEach((function(t){Object.defineProperty(n,t,Object.getOwnPropertyDescriptor(r,t))}))}return n}function e(t){return(e="function"==typeof Symbol&&"symbol"==typeof Symbol.iterator?function(t){return typeof t}:function(t){return t&&"function"==typeof Symbol&&t.constructor===Symbol&&t!==Symbol.prototype?"symbol":typeof t})(t)}function r(t,n){if(!(t instanceof n))throw new TypeError("Cannot call a class as a function")}function i(t,n){for(var e=0;e<n.length;e++){var r=n[e];r.enumerable=r.enumerable||!1,r.configurable=!0,"value"in r&&(r.writable=!0),Object.defineProperty(t,r.key,r)}}function o(t,n,e){return n&&i(t.prototype,n),e&&i(t,e),t}function u(t,n,e){return n in t?Object.defineProperty(t,n,{value:e,enumerable:!0,configurable:!0,writable:!0}):t[n]=e,t}function a(t){return(a=Object.setPrototypeOf?Object.getPrototypeOf:function(t){return t.__proto__||Object.getPrototypeOf(t)})(t)}function l(t,n){return(l=Object.setPrototypeOf||function(t,n){return t.__proto__=n,t})(t,n)}function s(){if("undefined"==typeof Reflect||!Reflect.construct)return!1;if(Reflect.construct.sham)return!1;if("function"==typeof Proxy)return!0;try{return Boolean.prototype.valueOf.call(Reflect.construct(Boolean,[],(function(){}))),!0}catch(t){return!1}}function f(t,n,e){return(f=s()?Reflect.construct:function(t,n,e){var r=[null];r.push.apply(r,n);var i=new(Function.bind.apply(t,r));return e&&l(i,e.prototype),i}).apply(null,arguments)}function c(t,n){if(n&&("object"==typeof n||"function"==typeof n))return n;if(void 0!==n)throw new TypeError("Derived constructors may only return object or undefined");return function(t){if(void 0===t)throw new ReferenceError("this hasn't been initialised - super() hasn't been called");return t}(t)}function h(t,n,e){return(h="undefined"!=typeof Reflect&&Reflect.get?Reflect.get:function(t,n,e){var r=function(t,n){for(;!Object.prototype.hasOwnProperty.call(t,n)&&null!==(t=a(t)););return t}(t,n);if(r){var i=Object.getOwnPropertyDescriptor(r,n);return i.get?i.get.call(e):i.value}})(t,n,e||t)}function v(t){return function(t){if(Array.isArray(t))return y(t)}(t)||function(t){if("undefined"!=typeof Symbol&&null!=t[Symbol.iterator]||null!=t["@@iterator"])return Array.from(t)}(t)||function(t,n){if(!t)return;if("string"==typeof t)return y(t,n);var e=Object.prototype.toString.call(t).slice(8,-1);"Object"===e&&t.constructor&&(e=t.constructor.name);if("Map"===e||"Set"===e)return Array.from(t);if("Arguments"===e||/^(?:Ui|I)nt(?:8|16|32)(?:Clamped)?Array$/.test(e))return y(t,n)}(t)||function(){throw new TypeError("Invalid attempt to spread non-iterable instance.\nIn order to be iterable, non-array objects must have a [Symbol.iterator]() method.")}()}function y(t,n){(null==n||n>t.length)&&(n=t.length);for(var e=0,r=new Array(n);e<n;e++)r[e]=t[e];return r}function g(t,n,e){if(Number.isInteger(t))return t;var r=Math.pow(10,n);return Math[e]((+t+Number.EPSILON)*r)/r}Number.isInteger||(Number.isInteger=function(t){return"number"==typeof t&&isFinite(t)&&Math.floor(t)===t}),Number.EPSILON||(Number.EPSILON=2220446049250313e-31);var d=p(Math.pow(10,-6));function p(t){var n=arguments.length>1&&void 0!==arguments[1]?arguments[1]:6;return g(t,n,"round")}function m(t,n){var e=arguments.length>2&&void 0!==arguments[2]?arguments[2]:d;return Math.abs(t-n)<e}p(Math.pow(10,-2)),p(Math.pow(10,-4));var b=Math.PI/180;function w(t){return t}function A(t,n,e){var r=1-e;return 3*e*r*(t*r+n*e)+e*e*e}function _(){var t=arguments.length>0&&void 0!==arguments[0]?arguments[0]:0,n=arguments.length>1&&void 0!==arguments[1]?arguments[1]:0,e=arguments.length>2&&void 0!==arguments[2]?arguments[2]:1,r=arguments.length>3&&void 0!==arguments[3]?arguments[3]:1;return t<0||t>1||e<0||e>1?null:m(t,n)&&m(e,r)?w:function(i){if(i<=0)return t>0?i*n/t:0===n&&e>0?i*r/e:0;if(i>=1)return e<1?1+(i-1)*(r-1)/(e-1):1===e&&t<1?1+(i-1)*(n-1)/(t-1):1;for(var o,u=0,a=1;u<a;){var l=A(t,e,o=(u+a)/2);if(m(i,l))break;l<i?u=o:a=o}return A(n,r,o)}}function x(){return 1}function k(t){return 1===t?1:0}function S(){var t=arguments.length>0&&void 0!==arguments[0]?arguments[0]:1,n=arguments.length>1&&void 0!==arguments[1]?arguments[1]:0;if(1===t){if(0===n)return k;if(1===n)return x}var e=1/t;return function(t){return t>=1?1:(t+=n*e)-t%e}}var O=Math.sin,j=Math.cos,M=Math.acos,E=Math.asin,P=Math.tan,I=Math.atan2,R=Math.PI/180,F=180/Math.PI,N=Math.sqrt,T=function(){function t(){var n=arguments.length>0&&void 0!==arguments[0]?arguments[0]:1,e=arguments.length>1&&void 0!==arguments[1]?arguments[1]:0,i=arguments.length>2&&void 0!==arguments[2]?arguments[2]:0,o=arguments.length>3&&void 0!==arguments[3]?arguments[3]:1,u=arguments.length>4&&void 0!==arguments[4]?arguments[4]:0,a=arguments.length>5&&void 0!==arguments[5]?arguments[5]:0;r(this,t),this.m=[n,e,i,o,u,a],this.i=null,this.w=null,this.s=null}return o(t,[{key:"determinant",get:function(){var t=this.m;return t[0]*t[3]-t[1]*t[2]}},{key:"isIdentity",get:function(){if(null===this.i){var t=this.m;this.i=1===t[0]&&0===t[1]&&0===t[2]&&1===t[3]&&0===t[4]&&0===t[5]}return this.i}},{key:"point",value:function(t,n){var e=this.m;return{x:e[0]*t+e[2]*n+e[4],y:e[1]*t+e[3]*n+e[5]}}},{key:"translateSelf",value:function(){var t=arguments.length>0&&void 0!==arguments[0]?arguments[0]:0,n=arguments.length>1&&void 0!==arguments[1]?arguments[1]:0;if(!t&&!n)return this;var e=this.m;return e[4]+=e[0]*t+e[2]*n,e[5]+=e[1]*t+e[3]*n,this.w=this.s=this.i=null,this}},{key:"rotateSelf",value:function(){var t=arguments.length>0&&void 0!==arguments[0]?arguments[0]:0;if(t%=360){var n=O(t*=R),e=j(t),r=this.m,i=r[0],o=r[1];r[0]=i*e+r[2]*n,r[1]=o*e+r[3]*n,r[2]=r[2]*e-i*n,r[3]=r[3]*e-o*n,this.w=this.s=this.i=null}return this}},{key:"scaleSelf",value:function(){var t=arguments.length>0&&void 0!==arguments[0]?arguments[0]:1,n=arguments.length>1&&void 0!==arguments[1]?arguments[1]:1;if(1!==t||1!==n){var e=this.m;e[0]*=t,e[1]*=t,e[2]*=n,e[3]*=n,this.w=this.s=this.i=null}return this}},{key:"skewSelf",value:function(t,n){if(n%=360,(t%=360)||n){var e=this.m,r=e[0],i=e[1],o=e[2],u=e[3];t&&(t=P(t*R),e[2]+=r*t,e[3]+=i*t),n&&(n=P(n*R),e[0]+=o*n,e[1]+=u*n),this.w=this.s=this.i=null}return this}},{key:"resetSelf",value:function(){var t=arguments.length>0&&void 0!==arguments[0]?arguments[0]:1,n=arguments.length>1&&void 0!==arguments[1]?arguments[1]:0,e=arguments.length>2&&void 0!==arguments[2]?arguments[2]:0,r=arguments.length>3&&void 0!==arguments[3]?arguments[3]:1,i=arguments.length>4&&void 0!==arguments[4]?arguments[4]:0,o=arguments.length>5&&void 0!==arguments[5]?arguments[5]:0,u=this.m;return u[0]=t,u[1]=n,u[2]=e,u[3]=r,u[4]=i,u[5]=o,this.w=this.s=this.i=null,this}},{key:"recomposeSelf",value:function(){var t=arguments.length>0&&void 0!==arguments[0]?arguments[0]:null,n=arguments.length>1&&void 0!==arguments[1]?arguments[1]:null,e=arguments.length>2&&void 0!==arguments[2]?arguments[2]:null,r=arguments.length>3&&void 0!==arguments[3]?arguments[3]:null,i=arguments.length>4&&void 0!==arguments[4]?arguments[4]:null;return this.isIdentity||this.resetSelf(),t&&(t.x||t.y)&&this.translateSelf(t.x,t.y),n&&this.rotateSelf(n),e&&(e.x&&this.skewSelf(e.x,0),e.y&&this.skewSelf(0,e.y)),!r||1===r.x&&1===r.y||this.scaleSelf(r.x,r.y),i&&(i.x||i.y)&&this.translateSelf(i.x,i.y),this}},{key:"decompose",value:function(){var t=arguments.length>0&&void 0!==arguments[0]?arguments[0]:0,n=arguments.length>1&&void 0!==arguments[1]?arguments[1]:0,e=this.m,r=e[0]*e[0]+e[1]*e[1],i=[[e[0],e[1]],[e[2],e[3]]],o=N(r);if(0===o)return{origin:{x:p(e[4]),y:p(e[5])},translate:{x:p(t),y:p(n)},scale:{x:0,y:0},skew:{x:0,y:0},rotate:0};i[0][0]/=o,i[0][1]/=o;var u=e[0]*e[3]-e[1]*e[2]<0;u&&(o=-o);var a=i[0][0]*i[1][0]+i[0][1]*i[1][1];i[1][0]-=i[0][0]*a,i[1][1]-=i[0][1]*a;var l=N(i[1][0]*i[1][0]+i[1][1]*i[1][1]);if(0===l)return{origin:{x:p(e[4]),y:p(e[5])},translate:{x:p(t),y:p(n)},scale:{x:p(o),y:0},skew:{x:0,y:0},rotate:0};i[1][0]/=l,i[1][1]/=l,a/=l;var s=0;return i[1][1]<0?(s=M(i[1][1])*F,i[0][1]<0&&(s=360-s)):s=E(i[0][1])*F,u&&(s=-s),a=I(a,N(i[0][0]*i[0][0]+i[0][1]*i[0][1]))*F,u&&(a=-a),{origin:{x:p(e[4]),y:p(e[5])},translate:{x:p(t),y:p(n)},scale:{x:p(o),y:p(l)},skew:{x:p(a),y:0},rotate:p(s)}}},{key:"clone",value:function(){var t=this.m;return new this.constructor(t[0],t[1],t[2],t[3],t[4],t[5])}},{key:"toString",value:function(){var t=arguments.length>0&&void 0!==arguments[0]?arguments[0]:" ";if(null===this.s){var n=this.m.map((function(t){return p(t)}));1===n[0]&&0===n[1]&&0===n[2]&&1===n[3]?this.s="translate("+n[4]+t+n[5]+")":this.s="matrix("+n.join(t)+")"}return this.s}}],[{key:"create",value:function(t){return t?Array.isArray(t)?f(this,v(t)):t instanceof this?t.clone():(new this).recomposeSelf(t.origin,t.rotate,t.skew,t.scale,t.translate):new this}}]),t}();function q(t,n,e){return t>=.5?e:n}function B(t,n,e){return 0===t||n===e?n:t*(e-n)+n}function D(t,n,e){var r=B(t,n,e);return r<=0?0:r}function L(t,n,e){var r=B(t,n,e);return r<=0?0:r>=1?1:r}function C(t,n,e){return 0===t?n:1===t?e:{x:B(t,n.x,e.x),y:B(t,n.y,e.y)}}function V(t,n,e){var r=function(t,n,e){return Math.round(B(t,n,e))}(t,n,e);return r<=0?0:r>=255?255:r}function G(t,n,e){return 0===t?n:1===t?e:{r:V(t,n.r,e.r),g:V(t,n.g,e.g),b:V(t,n.b,e.b),a:B(t,null==n.a?1:n.a,null==e.a?1:e.a)}}function z(t,n){for(var e=[],r=0;r<t;r++)e.push(n);return e}function Y(t,n){if(--n<=0)return t;var e=(t=Object.assign([],t)).length;do{for(var r=0;r<e;r++)t.push(t[r])}while(--n>0);return t}var $,U=function(){function t(n){r(this,t),this.list=n,this.length=n.length}return o(t,[{key:"setAttribute",value:function(t,n){for(var e=this.list,r=0;r<this.length;r++)e[r].setAttribute(t,n)}},{key:"removeAttribute",value:function(t){for(var n=this.list,e=0;e<this.length;e++)n[e].removeAttribute(t)}},{key:"style",value:function(t,n){for(var e=this.list,r=0;r<this.length;r++)e[r].style[t]=n}}]),t}(),Q=/-./g,H=function(t,n){return n.toUpperCase()};function J(t){return"function"==typeof t?t:q}function Z(t){return t?"function"==typeof t?t:Array.isArray(t)?function(t){var n=arguments.length>1&&void 0!==arguments[1]?arguments[1]:w;if(!Array.isArray(t))return n;switch(t.length){case 1:return S(t[0])||n;case 2:return S(t[0],t[1])||n;case 4:return _(t[0],t[1],t[2],t[3])||n}return n}(t,null):function(t,n){var e=arguments.length>2&&void 0!==arguments[2]?arguments[2]:w;switch(t){case"linear":return w;case"steps":return S(n.steps||1,n.jump||0)||e;case"bezier":case"cubic-bezier":return _(n.x1||0,n.y1||0,n.x2||0,n.y2||0)||e}return e}(t.type,t.value,null):null}function K(t,n,e){var r=arguments.length>3&&void 0!==arguments[3]&&arguments[3],i=n.length-1;if(t<=n[0].t)return r?[0,0,n[0].v]:n[0].v;if(t>=n[i].t)return r?[i,1,n[i].v]:n[i].v;var o,u=n[0],a=null;for(o=1;o<=i;o++){if(!(t>n[o].t)){a=n[o];break}u=n[o]}return null==a?r?[i,1,n[i].v]:n[i].v:u.t===a.t?r?[o,1,a.v]:a.v:(t=(t-u.t)/(a.t-u.t),u.e&&(t=u.e(t)),r?[o,t,e(t,u.v,a.v)]:e(t,u.v,a.v))}function W(t,n){var e=arguments.length>2&&void 0!==arguments[2]?arguments[2]:null;return t&&t.length?"function"!=typeof n?null:("function"!=typeof e&&(e=null),function(r){var i=K(r,t,n);return null!=i&&e&&(i=e(i)),i}):null}function X(t,n){return t.t-n.t}function tt(t,n,r,i,o){var u,a="@"===r[0],l="#"===r[0],s=$[r],f=q;switch(a?(u=r.substr(1),r=u.replace(Q,H)):l&&(r=r.substr(1)),e(s)){case"function":if(f=s(i,o,K,Z,r,a,n,t),l)return f;break;case"string":f=W(i,J(s));break;case"object":if((f=W(i,J(s.i),s.f))&&"function"==typeof s.u)return s.u(n,f,r,a,t)}return f?function(t,n,e){if(arguments.length>3&&void 0!==arguments[3]&&arguments[3])return t instanceof U?function(r){return t.style(n,e(r))}:function(r){return t.style[n]=e(r)};if(Array.isArray(n)){var r=n.length;return function(i){var o=e(i);if(null==o)for(var u=0;u<r;u++)t[u].removeAttribute(n);else for(var a=0;a<r;a++)t[a].setAttribute(n,o)}}return function(r){var i=e(r);null==i?t.removeAttribute(n):t.setAttribute(n,i)}}(n,r,f,a):null}function nt(t,n,r,i){if(!i||"object"!==e(i))return null;var o=null,u=null;return Array.isArray(i)?u=function(t){if(!t||!t.length)return null;for(var n=0;n<t.length;n++)t[n].e&&(t[n].e=Z(t[n].e));return t.sort(X)}(i):(u=i.keys,o=i.data||null),u?tt(t,n,r,u,o):null}function et(t,n,e){if(!e)return null;var r=[];for(var i in e)if(e.hasOwnProperty(i)){var o=nt(t,n,i,e[i]);o&&r.push(o)}return r.length?r:null}function rt(t,n){if(!n.settings.duration||n.settings.duration<0)return null;var e,r,i,o,u,a=function(t,n){if(!n)return null;var e=[];if(Array.isArray(n))for(var r=n.length,i=0;i<r;i++){var o=n[i];if(2===o.length){var u=null;if("string"==typeof o[0])u=t.getElementById(o[0]);else if(Array.isArray(o[0])){u=[];for(var a=0;a<o[0].length;a++)if("string"==typeof o[0][a]){var l=t.getElementById(o[0][a]);l&&u.push(l)}u=u.length?1===u.length?u[0]:new U(u):null}if(u){var s=et(t,u,o[1]);s&&(e=e.concat(s))}}}else for(var f in n)if(n.hasOwnProperty(f)){var c=t.getElementById(f);if(c){var h=et(t,c,n[f]);h&&(e=e.concat(h))}}return e.length?e:null}(t,n.elements);return a?(e=a,r=n.settings,i=r.duration,o=e.length,u=null,function(t,n){var a=r.iterations||1/0,l=(r.alternate&&a%2==0)^r.direction>0?i:0,s=t%i,f=1+(t-s)/i;n*=r.direction,r.alternate&&f%2==0&&(n=-n);var c=!1;if(f>a)s=l,c=!0,-1===r.fill&&(s=r.direction>0?0:i);else if(n<0&&(s=i-s),s===u)return!1;u=s;for(var h=0;h<o;h++)e[h](s);return c}):null}function it(t,n){for(var e=n.querySelectorAll("svg"),r=0;r<e.length;r++)if(e[r].id===t.root&&!e[r].svgatorAnimation)return e[r].svgatorAnimation=!0,e[r];return null}function ot(t){var n=function(t){return t.shadowRoot};return document?Array.from(t.querySelectorAll(":not("+["a","area","audio","br","canvas","circle","datalist","embed","g","head","hr","iframe","img","input","link","object","path","polygon","rect","script","source","style","svg","title","track","video"].join()+")")).filter(n).map(n):[]}function ut(t){var n=arguments.length>1&&void 0!==arguments[1]?arguments[1]:document,e=arguments.length>2&&void 0!==arguments[2]?arguments[2]:0,r=it(t,n);if(r)return r;if(e>=20)return null;for(var i=ot(n),o=0;o<i.length;o++){var u=ut(t,i[o],e+1);if(u)return u}return null}function at(t,n){if($=n,!t||!t.root||!Array.isArray(t.animations))return null;var e=ut(t);if(!e)return null;var r=t.animations.map((function(t){return rt(e,t)})).filter((function(t){return!!t}));return r.length?{svg:e,animations:r,animationSettings:t.animationSettings,options:t.options||void 0}:null}function lt(t){var n=arguments.length>1&&void 0!==arguments[1]?arguments[1]:null,e=arguments.length>2&&void 0!==arguments[2]?arguments[2]:Number,r=arguments.length>3&&void 0!==arguments[3]?arguments[3]:"undefined"!=typeof BigInt&&BigInt,i="0x"+(t.replace(/[^0-9a-fA-F]+/g,"")||27);return n&&r&&e.isSafeInteger&&!e.isSafeInteger(+i)?e(r(i))%n+n:+i}function st(t,n,e){return!t||!e||n>t.length?t:t.substring(0,n)+st(t.substring(n+1),e,e)}function ft(t){var n=arguments.length>1&&void 0!==arguments[1]?arguments[1]:27;return!t||t%n?t%n:[0,1].includes(n)?n:ft(t/n,n)}function ct(t,n,e){if(t&&t.length){var r=lt(e),i=ft(r)+5,o=st(t,ft(r,5),i);return o=o.replace(/\x7c$/g,"==").replace(/\x2f$/g,"="),o=function(t,n,e){var r=+("0x"+t.substring(0,4));t=t.substring(4);for(var i=lt(n,r)%r+e%27,o=[],u=0;u<t.length;u+=2)if("|"!==t[u]){var a=+("0x"+t[u]+t[u+1])-i;o.push(a)}else{var l=+("0x"+t.substring(u+1,u+1+4))-i;u+=3,o.push(l)}return String.fromCharCode.apply(String,o)}(o=(o=atob(o)).replace(/[\x41-\x5A]/g,""),n,r),o=JSON.parse(o)}}var ht=[{key:"alternate",def:!1},{key:"fill",def:1},{key:"iterations",def:0},{key:"direction",def:1},{key:"speed",def:1},{key:"fps",def:100}],vt=function(){function t(n,e){var i=this,o=arguments.length>2&&void 0!==arguments[2]?arguments[2]:null;r(this,t),this._id=0,this._running=!1,this._rollingBack=!1,this._animations=n,this._settings=e,(!o||o<"2022-05-02")&&delete this._settings.speed,ht.forEach((function(t){i._settings[t.key]=i._settings[t.key]||t.def})),this.duration=e.duration,this.offset=e.offset||0,this.rollbackStartOffset=0}return o(t,[{key:"alternate",get:function(){return this._settings.alternate}},{key:"fill",get:function(){return this._settings.fill}},{key:"iterations",get:function(){return this._settings.iterations}},{key:"direction",get:function(){return this._settings.direction}},{key:"speed",get:function(){return this._settings.speed}},{key:"fps",get:function(){return this._settings.fps}},{key:"maxFiniteDuration",get:function(){return this.iterations>0?this.iterations*this.duration:this.duration}},{key:"_apply",value:function(t){for(var n=arguments.length>1&&void 0!==arguments[1]?arguments[1]:{},e=this._animations,r=e.length,i=0,o=0;o<r;o++)n[o]?i++:(n[o]=e[o](t,1),n[o]&&i++);return i}},{key:"_rollback",value:function(t){var n=this,e=1/0,r=null;this.rollbackStartOffset=t,this._rollingBack=!0,this._running=!0;this._id=window.requestAnimationFrame((function i(o){if(n._rollingBack){null==r&&(r=o);var u=Math.round(t-(o-r)*n.speed);if(u>n.duration&&e!==1/0){var a=!!n.alternate&&u/n.duration%2>1,l=u%n.duration;u=(l+=a?n.duration:0)||n.duration}var s=(n.fps?1e3/n.fps:0)*n.speed,f=Math.max(0,u);f<=e-s&&(n.offset=f,e=f,n._apply(f));var c=n.iterations>0&&-1===n.fill&&u>=n.maxFiniteDuration;(u<=0||n.offset<u||c)&&n.stop(),n._id=window.requestAnimationFrame(i)}}))}},{key:"_start",value:function(){var t=this,n=arguments.length>0&&void 0!==arguments[0]?arguments[0]:0,e=-1/0,r=null,i={};this._running=!0;var o=function o(u){null==r&&(r=u);var a=Math.round((u-r)*t.speed+n),l=(t.fps?1e3/t.fps:0)*t.speed;if(a>=e+l&&!t._rollingBack&&(t.offset=a,e=a,t._apply(a,i)===t._animations.length))return void t.pause(!0);t._id=window.requestAnimationFrame(o)};this._id=window.requestAnimationFrame(o)}},{key:"_pause",value:function(){this._id&&window.cancelAnimationFrame(this._id),this._running=!1}},{key:"play",value:function(){if(!this._running)return this._rollingBack?this._rollback(this.offset):this._start(this.offset)}},{key:"stop",value:function(){this._pause(),this.offset=0,this.rollbackStartOffset=0,this._rollingBack=!1,this._apply(0)}},{key:"reachedToEnd",value:function(){return this.iterations>0&&this.offset>=this.iterations*this.duration}},{key:"restart",value:function(){var t=arguments.length>0&&void 0!==arguments[0]&&arguments[0];this.stop(t),this.play(t)}},{key:"pause",value:function(){this._pause()}},{key:"reverse",value:function(){this.direction=-this.direction}}],[{key:"build",value:function(t,n){delete t.animationSettings,t.options=ct(t.options,t.root,"5c7f360c"),t.animations.map((function(n){n.settings=ct(n.s,t.root,"5c7f360c"),delete n.s,t.animationSettings||(t.animationSettings=n.settings)}));var e=t.version;if(!(t=at(t,n)))return null;var r=t.options||{},i=new this(t.animations,t.animationSettings,e);return{el:t.svg,options:r,player:i}}},{key:"push",value:function(t){return this.build(t)}},{key:"init",value:function(){var t=this,n=window.__SVGATOR_PLAYER__&&window.__SVGATOR_PLAYER__["5c7f360c"];Array.isArray(n)&&n.splice(0).forEach((function(n){return t.build(n)}))}}]),t}();function yt(t){return p(t)+""}function gt(t){var n=arguments.length>1&&void 0!==arguments[1]?arguments[1]:" ";return t&&t.length?t.map(yt).join(n):""}function dt(t){if(!t)return"transparent";if(null==t.a||t.a>=1){var n=function(t){return 1===(t=parseInt(t).toString(16)).length?"0"+t:t},e=function(t){return t.charAt(0)===t.charAt(1)},r=n(t.r),i=n(t.g),o=n(t.b);return e(r)&&e(i)&&e(o)&&(r=r.charAt(0),i=i.charAt(0),o=o.charAt(0)),"#"+r+i+o}return"rgba("+t.r+","+t.g+","+t.b+","+t.a+")"}function pt(t){return t?"url(#"+t+")":"none"}!function(){for(var t=0,n=["ms","moz","webkit","o"],e=0;e<n.length&&!window.requestAnimationFrame;++e)window.requestAnimationFrame=window[n[e]+"RequestAnimationFrame"],window.cancelAnimationFrame=window[n[e]+"CancelAnimationFrame"]||window[n[e]+"CancelRequestAnimationFrame"];window.requestAnimationFrame||(window.requestAnimationFrame=function(n){var e=Date.now(),r=Math.max(0,16-(e-t)),i=window.setTimeout((function(){n(e+r)}),r);return t=e+r,i},window.cancelAnimationFrame=window.clearTimeout)}();var mt={f:null,i:function(t,n,e){return 0===t?n:1===t?e:{x:D(t,n.x,e.x),y:D(t,n.y,e.y)}},u:function(t,n){return function(e){var r=n(e);t.setAttribute("rx",yt(r.x)),t.setAttribute("ry",yt(r.y))}}},bt={f:null,i:function(t,n,e){return 0===t?n:1===t?e:{width:D(t,n.width,e.width),height:D(t,n.height,e.height)}},u:function(t,n){return function(e){var r=n(e);t.setAttribute("width",yt(r.width)),t.setAttribute("height",yt(r.height))}}};Object.freeze({M:2,L:2,Z:0,H:1,V:1,C:6,Q:4,T:2,S:4,A:7});var wt={},At=null;function _t(t){var n=function(){if(At)return At;if("object"!==("undefined"==typeof document?"undefined":e(document))||!document.createElementNS)return{};var t=document.createElementNS("http://www.w3.org/2000/svg","svg");return t&&t.style?(t.style.position="absolute",t.style.opacity="0.01",t.style.zIndex="-9999",t.style.left="-9999px",t.style.width="1px",t.style.height="1px",At={svg:t}):{}}().svg;if(!n)return function(t){return null};var r=document.createElementNS(n.namespaceURI,"path");r.setAttributeNS(null,"d",t),r.setAttributeNS(null,"fill","none"),r.setAttributeNS(null,"stroke","none"),n.appendChild(r);var i=r.getTotalLength();return function(t){var n=r.getPointAtLength(i*t);return{x:n.x,y:n.y}}}function xt(t){return wt[t]?wt[t]:wt[t]=_t(t)}function kt(t,n,e,r){if(!t||!r)return!1;var i=["M",t.x,t.y];if(n&&e&&(i.push("C"),i.push(n.x),i.push(n.y),i.push(e.x),i.push(e.y)),n?!e:e){var o=n||e;i.push("Q"),i.push(o.x),i.push(o.y)}return n||e||i.push("L"),i.push(r.x),i.push(r.y),i.join(" ")}function St(t,n,e,r){var i=arguments.length>4&&void 0!==arguments[4]?arguments[4]:1,o=kt(t,n,e,r),u=xt(o);try{return u(i)}catch(t){return null}}function Ot(t,n,e){return t+(n-t)*e}function jt(t,n,e){var r=arguments.length>3&&void 0!==arguments[3]&&arguments[3],i={x:Ot(t.x,n.x,e),y:Ot(t.y,n.y,e)};return r&&(i.a=Mt(t,n)),i}function Mt(t,n){return Math.atan2(n.y-t.y,n.x-t.x)}function Et(t,n,e,r){var i=1-r;return i*i*t+2*i*r*n+r*r*e}function Pt(t,n,e,r){return 2*(1-r)*(n-t)+2*r*(e-n)}function It(t,n,e,r){var i=arguments.length>4&&void 0!==arguments[4]&&arguments[4],o=St(t,n,null,e,r);return o||(o={x:Et(t.x,n.x,e.x,r),y:Et(t.y,n.y,e.y,r)}),i&&(o.a=Rt(t,n,e,r)),o}function Rt(t,n,e,r){return Math.atan2(Pt(t.y,n.y,e.y,r),Pt(t.x,n.x,e.x,r))}function Ft(t,n,e,r,i){var o=i*i;return i*o*(r-t+3*(n-e))+3*o*(t+e-2*n)+3*i*(n-t)+t}function Nt(t,n,e,r,i){var o=1-i;return 3*(o*o*(n-t)+2*o*i*(e-n)+i*i*(r-e))}function Tt(t,n,e,r,i){var o=arguments.length>5&&void 0!==arguments[5]&&arguments[5],u=St(t,n,e,r,i);return u||(u={x:Ft(t.x,n.x,e.x,r.x,i),y:Ft(t.y,n.y,e.y,r.y,i)}),o&&(u.a=qt(t,n,e,r,i)),u}function qt(t,n,e,r,i){return Math.atan2(Nt(t.y,n.y,e.y,r.y,i),Nt(t.x,n.x,e.x,r.x,i))}function Bt(t,n,e){var r=arguments.length>3&&void 0!==arguments[3]&&arguments[3];if(Lt(n)){if(Ct(e))return It(n,e.start,e,t,r)}else if(Lt(e)){if(Vt(n))return It(n,n.end,e,t,r)}else{if(Vt(n))return Ct(e)?Tt(n,n.end,e.start,e,t,r):It(n,n.end,e,t,r);if(Ct(e))return It(n,e.start,e,t,r)}return jt(n,e,t,r)}function Dt(t,n,e){var r=Bt(t,n,e,!0);return r.a=function(t){return arguments.length>1&&void 0!==arguments[1]&&arguments[1]?t+Math.PI:t}(r.a)/b,r}function Lt(t){return!t.type||"corner"===t.type}function Ct(t){return null!=t.start&&!Lt(t)}function Vt(t){return null!=t.end&&!Lt(t)}var Gt=new T;var zt={f:yt,i:B},Yt={f:yt,i:L};function $t(t,n,e){return t.map((function(t){return function(t,n,e){var r=t.v;if(!r||"g"!==r.t||r.s||!r.v||!r.r)return t;var i=e.getElementById(r.r),o=i&&i.querySelectorAll("stop")||[];return r.s=r.v.map((function(t,n){var e=o[n]&&o[n].getAttribute("offset");return{c:t,o:e=p(parseInt(e)/100)}})),delete r.v,t}(t,0,e)}))}var Ut={gt:"gradientTransform",c:{x:"cx",y:"cy"},rd:"r",f:{x:"x1",y:"y1"},to:{x:"x2",y:"y2"}};function Qt(t,n,r,i,o,u,a,l){return $t(t,0,l),n=function(t,n,e){for(var r,i,o,u=t.length-1,a={},l=0;l<=u;l++)(r=t[l]).e&&(r.e=n(r.e)),r.v&&"g"===(i=r.v).t&&i.r&&(o=e.getElementById(i.r))&&(a[i.r]={e:o,s:o.querySelectorAll("stop")});return a}(t,i,l),function(i){var o=r(i,t,Ht);if(!o)return"none";if("c"===o.t)return dt(o.v);if("g"===o.t){if(!n[o.r])return pt(o.r);var u=n[o.r];return function(t,n){for(var e=t.s,r=e.length;r<n.length;r++){var i=e[e.length-1].cloneNode();i.id=Kt(i.id),t.e.appendChild(i),e=t.s=t.e.querySelectorAll("stop")}for(var o=0,u=e.length,a=n.length-1;o<u;o++)e[o].setAttribute("stop-color",dt(n[Math.min(o,a)].c)),e[o].setAttribute("offset",n[Math.min(o,a)].o)}(u,o.s),Object.keys(Ut).forEach((function(t){if(void 0!==o[t])if("object"!==e(Ut[t])){var n,r="gt"===t?(n=o[t],Array.isArray(n)?"matrix("+n.join(" ")+")":""):o[t],i=Ut[t];u.e.setAttribute(i,r)}else Object.keys(Ut[t]).forEach((function(n){if(void 0!==o[t][n]){var e=o[t][n],r=Ut[t][n];u.e.setAttribute(r,e)}}))})),pt(o.r)}return"none"}}function Ht(t,e,r){if(0===t)return e;if(1===t)return r;if(e&&r){var i=e.t;if(i===r.t)switch(e.t){case"c":return{t:i,v:G(t,e.v,r.v)};case"g":if(e.r===r.r){var o={t:i,s:Jt(t,e.s,r.s),r:e.r};return e.gt&&r.gt&&(o.gt=function(t,n,e){var r=n.length;if(r!==e.length)return q(t,n,e);for(var i=new Array(r),o=0;o<r;o++)i[o]=B(t,n[o],e[o]);return i}(t,e.gt,r.gt)),e.c?(o.c=C(t,e.c,r.c),o.rd=D(t,e.rd,r.rd)):e.f&&(o.f=C(t,e.f,r.f),o.to=C(t,e.to,r.to)),o}}if("c"===e.t&&"g"===r.t||"c"===r.t&&"g"===e.t){var u="c"===e.t?e:r,a="g"===e.t?n({},e):n({},r),l=a.s.map((function(t){return{c:u.v,o:t.o}}));return a.s="c"===e.t?Jt(t,l,a.s):Jt(t,a.s,l),a}}return q(t,e,r)}function Jt(t,n,e){if(n.length===e.length)return n.map((function(n,r){return Zt(t,n,e[r])}));for(var r=Math.max(n.length,e.length),i=[],o=0;o<r;o++){var u=Zt(t,n[Math.min(o,n.length-1)],e[Math.min(o,e.length-1)]);i.push(u)}return i}function Zt(t,n,e){return{o:L(t,n.o,e.o||0),c:G(t,n.c,e.c||{})}}function Kt(t){return t.replace(/-fill-([0-9]+)$/,(function(t,n){return"-fill-"+(+n+1)}))}var Wt={fill:Qt,"fill-opacity":Yt,stroke:Qt,"stroke-opacity":Yt,"stroke-width":zt,"stroke-dashoffset":{f:yt,i:B},"stroke-dasharray":{f:function(t){var n=arguments.length>1&&void 0!==arguments[1]?arguments[1]:" ";return t&&t.length>0&&(t=t.map((function(t){return p(t,4)}))),gt(t,n)},i:function(t,n,e){var r,i,o,u=n.length,a=e.length;if(u!==a)if(0===u)n=z(u=a,0);else if(0===a)a=u,e=z(u,0);else{var l=(o=(r=u)*(i=a)/function(t,n){for(var e;n;)e=n,n=t%n,t=e;return t||1}(r,i))<0?-o:o;n=Y(n,Math.floor(l/u)),e=Y(e,Math.floor(l/a)),u=a=l}for(var s=[],f=0;f<u;f++)s.push(p(D(t,n[f],e[f])));return s}},opacity:Yt,transform:function(t,n,r,i){if(!(t=function(t,n){if(!t||"object"!==e(t))return null;var r=!1;for(var i in t)t.hasOwnProperty(i)&&(t[i]&&t[i].length?(t[i].forEach((function(t){t.e&&(t.e=n(t.e))})),r=!0):delete t[i]);return r?t:null}(t,i)))return null;var o=function(e,i,o){var u=arguments.length>3&&void 0!==arguments[3]?arguments[3]:null;return t[e]?r(i,t[e],o):n&&n[e]?n[e]:u};return n&&n.a&&t.o?function(n){var e=r(n,t.o,Dt);return Gt.recomposeSelf(e,o("r",n,B,0)+e.a,o("k",n,C),o("s",n,C),o("t",n,C)).toString()}:function(t){return Gt.recomposeSelf(o("o",t,Bt,null),o("r",t,B,0),o("k",t,C),o("s",t,C),o("t",t,C)).toString()}},r:zt,"#size":bt,"#radius":mt,_:function(t,n){if(Array.isArray(t))for(var e=0;e<t.length;e++)this[t[e]]=n;else this[t]=n}},Xt=function(t){!function(t,n){if("function"!=typeof n&&null!==n)throw new TypeError("Super expression must either be null or a function");t.prototype=Object.create(n&&n.prototype,{constructor:{value:t,writable:!0,configurable:!0}}),n&&l(t,n)}(u,t);var n,e,i=(n=u,e=s(),function(){var t,r=a(n);if(e){var i=a(this).constructor;t=Reflect.construct(r,arguments,i)}else t=r.apply(this,arguments);return c(this,t)});function u(){return r(this,u),i.apply(this,arguments)}return o(u,null,[{key:"build",value:function(t){var n=h(a(u),"build",this).call(this,t,Wt);if(!n)return null;n.el,n.options,function(t,n,e){t.play()}(n.player)}}]),u}(vt);return Xt.init(),Xt}));
(function(s,i,o,w,d,a,b){w[o]=w[o]||{};w[o][s]=w[o][s]||[];w[o][s].push(i);})('5c7f360c',{"root":"eeaCT6btBIy1","version":"2022-05-04","animations":[{"elements":{"eeaCT6btBIy83":{"transform":{"data":{"o":{"x":450.815,"y":321.5585,"type":"corner"},"t":{"x":-450.815,"y":-321.558499}},"keys":{"r":[{"t":0,"v":-5.673275},{"t":800,"v":1.27879},{"t":1400,"v":-4.367702},{"t":2000,"v":-1.421155}]}}},"eeaCT6btBIy87":{"transform":{"data":{"o":{"x":439.2635,"y":308.367,"type":"corner"},"t":{"x":-439.263499,"y":-308.366999}},"keys":{"r":[{"t":0,"v":-6.245197},{"t":800,"v":-0.84665},{"t":1400,"v":-3.586488},{"t":2000,"v":0}]}}},"eeaCT6btBIy90":{"transform":{"data":{"o":{"x":425.82187,"y":326.193,"type":"corner"},"t":{"x":-425.82187,"y":-326.192999}},"keys":{"r":[{"t":0,"v":-4.13895},{"t":800,"v":0.246168},{"t":1400,"v":-4.945457},{"t":2000,"v":-0.814847}]}}},"eeaCT6btBIy100":{"transform":{"data":{"t":{"x":-206.732498,"y":-136.445984}},"keys":{"o":[{"t":810,"v":{"x":206.732498,"y":136.445984,"type":"corner"}},{"t":1290,"v":{"x":206.438702,"y":121.025284,"type":"corner"}},{"t":2000,"v":{"x":206.885285,"y":136.015717,"type":"corner"}}]}}},"eeaCT6btBIy104":{"transform":{"data":{"t":{"x":-296.379486,"y":-79.276501}},"keys":{"o":[{"t":0,"v":{"x":296.012068,"y":79.276501,"type":"corner"}},{"t":400,"v":{"x":295.497009,"y":72.162001,"type":"corner"}},{"t":800,"v":{"x":295.497008,"y":79.276501,"type":"corner"}}]}}},"eeaCT6btBIy105":{"transform":{"data":{"t":{"x":-313.957993,"y":-79.276501}},"keys":{"o":[{"t":500,"v":{"x":313.437873,"y":79.276501,"type":"corner"}},{"t":800,"v":{"x":313.437873,"y":72.162001,"type":"corner"}},{"t":1100,"v":{"x":313.437873,"y":79.276501,"type":"corner"}}]}}},"eeaCT6btBIy106":{"transform":{"data":{"t":{"x":-331.536499,"y":-79.276501}},"keys":{"o":[{"t":800,"v":{"x":331.536499,"y":79.276501,"type":"corner"}},{"t":1100,"v":{"x":332.183026,"y":72.162001,"type":"corner"}},{"t":1400,"v":{"x":332.183026,"y":79.276501,"type":"corner"}}]}}},"eeaCT6btBIy107":{"transform":{"data":{"t":{"x":-349.114502,"y":-79.276501}},"keys":{"o":[{"t":1100,"v":{"x":349.114502,"y":79.276501,"type":"corner"}},{"t":1400,"v":{"x":349.323882,"y":72.162001,"type":"corner"}},{"t":1700,"v":{"x":349.323882,"y":79.276501,"type":"corner"}}]}}},"eeaCT6btBIy108":{"transform":{"data":{"t":{"x":-366.693008,"y":-79.276501}},"keys":{"o":[{"t":1400,"v":{"x":366.693008,"y":79.276501,"type":"corner"}},{"t":1700,"v":{"x":366.226878,"y":72.162001,"type":"corner"}},{"t":2000,"v":{"x":367.226878,"y":79.276501,"type":"corner"}}]}}},"eeaCT6btBIy109":{"transform":{"data":{"t":{"x":-30.563498,"y":-136.853436}},"keys":{"o":[{"t":0,"v":{"x":30.563498,"y":136.853436,"type":"corner"}},{"t":1000,"v":{"x":30.562998,"y":123.591567,"type":"corner"}},{"t":2000,"v":{"x":30.562999,"y":136.812001,"type":"corner"}}]}}},"eeaCT6btBIy115":{"transform":{"data":{"t":{"x":-132.319004,"y":-114.241936}},"keys":{"o":[{"t":0,"v":{"x":132.319004,"y":114.241936,"type":"corner"}},{"t":1000,"v":{"x":132.319016,"y":107.245204,"type":"corner"}},{"t":2000,"v":{"x":132.319015,"y":113.761887,"type":"corner"}}]}}},"eeaCT6btBIy126":{"transform":{"data":{"t":{"x":-66.94055,"y":-224.437225}},"keys":{"o":[{"t":0,"v":{"x":253.116687,"y":284.983899,"type":"cusp","end":{"x":221.031002,"y":257.434002}}},{"t":2000,"v":{"x":55.897,"y":226.435549,"type":"cusp","start":{"x":48.887585,"y":338.269887}}}],"r":[{"t":0,"v":-133.282019},{"t":600,"v":-154.471174},{"t":1200,"v":-135.700173},{"t":1700,"v":-82.256474},{"t":2000,"v":0}]}}},"eeaCT6btBIy186":{"transform":{"data":{"o":{"x":294.535997,"y":186.707,"type":"corner"},"t":{"x":-294.535996,"y":-186.707}},"keys":{"r":[{"t":0,"v":-35.537018},{"t":1100,"v":-6.395599}]}}},"eeaCT6btBIy212":{"transform":{"data":{"o":{"x":293.041414,"y":186.172177,"type":"corner"},"t":{"x":-295.010047,"y":-184.014481}},"keys":{"r":[{"t":0,"v":-35.537018},{"t":1100,"v":-6.395599}]}}},"eeaCT6btBIy238":{"transform":{"data":{"o":{"x":275.533096,"y":152.159187,"type":"corner"},"t":{"x":-275.533096,"y":-152.159187}},"keys":{"s":[{"t":0,"v":{"x":1,"y":1}},{"t":1000,"v":{"x":0.484669,"y":0.067387}},{"t":2000,"v":{"x":1.00914,"y":0.969501}}]}}},"eeaCT6btBIy279":{"transform":{"data":{"o":{"x":145.012,"y":190.183274,"type":"corner"},"t":{"x":-145.011998,"y":-190.183272}},"keys":{"r":[{"t":0,"v":12.565604},{"t":1400,"v":-0.163255}]}}},"eeaCT6btBIy326":{"transform":{"data":{"o":{"x":172.102005,"y":153.429993,"type":"corner"},"t":{"x":-172.102005,"y":-153.429993}},"keys":{"s":[{"t":0,"v":{"x":1,"y":0.952932}},{"t":1000,"v":{"x":0.256239,"y":0.172838}},{"t":2000,"v":{"x":1.074926,"y":0.967503}}]}}}},"s":"MRDA1ZGNkNzRiNmM3YzTRiM2M2SGJiYzFjMEwX3NE84Yzg0STg0ODI4DMjdlNzRiNmJiYzRiNS2I1YzZiYmMxYzA3NDChjODM3ZTc0SGJiYzZAiN2M0YjNjNmJiYzFjVMGM1NzQ4YzgyN2U3NTGI4YmJiZWJlNzQ4YzIgzWTdlNzRiM2JlYzZHiN2M0YzBiM2M2SmI3ONzQ4Y2I4YjNiZWM1YOjc3ZTc0YzVjMmI3YjMdEYjY3NDhjODM3ZTcH0YjhMYzJjNTc0OGM4KM1g4MjgyY2Y/"}],"options":"MUDAxMDg4VTJmODA4MTOZlN2Y4MTJmNDcyZlgG3OTdjNmVQNzEyZjhhV"},'__SVGATOR_PLAYER__',window,document)
]]></script>
</svg>
